<?xml version="1.0" encoding="utf-8"?>
<!-- Generator: Adobe Illustrator 30.0.0, SVG Export Plug-In . SVG Version: 9.03 Build 0)  -->
<svg version="1.0" id="Livello_1" xmlns="http://www.w3.org/2000/svg" xmlns:xlink="http://www.w3.org/1999/xlink" x="0px" y="0px"
	 viewBox="0 0 747.72 462.49" style="enable-background:new 0 0 747.72 462.49;" xml:space="preserve">
<g>
	<g>
		<path d="M19.68,20.15l72,179.29l-72,179.29h358.58V20.15H19.68z M328.48,145.54h-33.53V97.78h-115.8v80.71l149.33,73.3v83.25
			H103.12v-33.92h35.09V97.78h-35.09V63.86h225.36V145.54z"/>
		<g>
			<polygon points="492.87,103.5 442.35,78.69 442.35,51.39 481.53,51.39 481.53,67.55 492.87,67.55 492.87,39.91 416.62,39.91 
				416.62,51.39 428.48,51.39 428.48,120.18 416.62,120.18 416.62,131.66 492.87,131.66 			"/>
			<path d="M513.52,124.08c6.68,6.03,14.21,9.04,22.56,9.04c8.13,0,14.96-2.55,20.45-7.66c5.55-5.1,8.31-11.56,8.31-19.38
				c0-5.55-1.31-10.44-3.95-14.71c-2.64-4.26-5.78-7.3-9.44-9.11c-3.64-1.85-9.51-3.83-17.6-5.94c-6.19-1.57-10.36-2.8-12.47-3.7
				c-2.11-0.87-3.85-2.23-5.21-4.08c-1.36-1.9-2.04-4.07-2.04-6.53c0-3.2,1.34-5.95,4.02-8.25c2.68-2.32,6.53-3.49,11.55-3.49
				c8.26,0,14.74,3.55,19.45,10.61v6.4h11.21V39.45h-11.21v6.13c-6.29-4.75-13.11-7.12-20.45-7.12c-7.74,0-14.17,2.31-19.32,6.92
				c-5.1,4.57-7.65,10.71-7.65,18.4c0,4.96,0,67.87,0,67.87h11.81V124.08z"/>
			<path d="M609.02,120.18h-11.87V96.56h6.33c7.96,0,13.91-0.32,17.82-0.98c3.96-0.7,7.5-2.05,10.62-4.03
				c3.17-1.99,5.8-5.03,7.91-9.18c2.16-4.18,3.23-8.87,3.23-14.1c0-6.55-1.63-12.23-4.87-17.02c-3.21-4.84-7.22-7.93-12.01-9.3
				c-4.79-1.36-12-2.04-21.64-2.04h-32.78v11.48h11.55v68.79h-11.55v11.47h37.27V120.18z"/>
			<path d="M717.13,120.18l-16.23-33.37c12.62-3.13,18.93-10.75,18.93-22.89c0-5.81-1.49-10.64-4.48-14.51
				c-2.99-3.91-6.77-6.46-11.34-7.65c-4.57-1.23-10.76-1.85-18.54-1.85h-37.26v11.48h12.6v68.79h-12.6v11.47h26.45h8.84h2.9h4.78
				h17.32h19.84v-11.47H717.13z"/>
			<polygon points="492.88,217.16 442.35,192.35 442.35,165.05 481.53,165.05 481.53,181.21 492.88,181.21 492.88,153.57 
				416.62,153.57 416.62,165.05 428.5,165.05 428.5,233.84 416.62,233.84 416.62,245.32 492.88,245.32 			"/>
			<polygon points="649.55,245.32 683.31,245.32 683.31,233.84 673.35,233.84 673.35,165.05 683.31,165.05 683.31,153.57 
				649.55,153.57 649.55,165.05 659.51,233.84 649.55,233.84 			"/>
			<path d="M564.91,180.94v-27.83h-11.22v6.13c-6.28-4.75-13.1-7.12-20.44-7.12c-7.74,0-14.18,2.31-19.33,6.92
				c-5.1,4.57-7.65,10.71-7.65,18.4c0,4.96,0,67.87,0,67.87h11.8v-7.58c6.69,6.03,14.21,9.04,22.56,9.04
				c8.13,0,14.95-2.55,20.46-7.66c5.53-5.1,8.3-11.56,8.3-19.38c0-5.55-1.32-10.44-3.96-14.71c-2.63-4.26-5.78-7.3-9.43-9.11
				c-3.66-1.85-9.53-3.83-17.61-5.94c-6.21-1.57-10.36-2.8-12.46-3.7c-2.12-0.87-3.85-2.23-5.21-4.08c-1.37-1.9-2.05-4.07-2.05-6.53
				c0-3.2,1.34-5.95,4.03-8.25c2.68-2.32,6.53-3.49,11.53-3.49c8.27,0,14.76,3.55,19.45,10.61v6.4H564.91z"/>
			<path d="M641.1,219.73c0-5.55-1.32-10.44-3.97-14.71c-2.64-4.26-5.79-7.3-9.43-9.11c-3.65-1.85-9.52-3.83-17.61-5.94
				c-6.2-1.57-10.36-2.8-12.46-3.7c-2.12-0.87-3.85-2.23-5.21-4.08c-1.36-1.9-2.04-4.07-2.04-6.53c0-3.2,1.34-5.95,4.02-8.25
				c2.68-2.32,6.53-3.49,11.55-3.49c8.26,0,14.74,3.55,19.44,10.61v6.4h11.22v-27.83h-11.22v6.13c-6.28-4.75-13.1-7.12-20.44-7.12
				c-7.74,0-14.19,2.31-19.33,6.92c-5.1,4.57-7.64,10.71-7.64,18.4c0,4.96,0,67.87,0,67.87h11.81v-7.58
				c6.68,6.03,14.2,9.04,22.55,9.04c8.14,0,14.95-2.55,20.45-7.66C638.33,234.01,641.1,227.55,641.1,219.73z"/>
			<path d="M463.72,265.78c-13.99,0-25.34,4.49-34.05,13.45c-8.71,8.97-13.05,20.12-13.05,33.44c0,8.19,1.87,16.08,5.61,23.68
				c3.74,7.56,9.32,13.47,16.75,17.74c7.47,4.22,15.66,6.33,24.53,6.33c13.95,0,25.41-4.46,34.43-13.39
				c9.06-8.98,13.59-20.34,13.59-34.11c0-13.49-4.45-24.73-13.32-33.7C489.32,270.27,477.82,265.78,463.72,265.78z"/>
			<polygon points="572.8,279.23 585.8,279.23 585.8,339.05 545.55,267.77 514.22,267.77 514.22,279.23 527.35,279.23 
				527.35,348.02 514.22,348.02 514.22,359.51 551.83,359.51 582.69,360.43 596.94,360.43 596.94,279.23 610.46,279.23 
				610.46,267.77 572.8,267.77 			"/>
			<polygon points="614.42,279.23 626.29,279.23 626.29,348.02 614.42,348.02 614.42,359.51 690.66,359.51 690.66,331.34 
				640.15,306.54 640.15,279.23 679.33,279.23 679.33,295.38 690.66,295.38 690.66,267.77 614.42,267.77 			"/>
			<path d="M725.98,355.77h-4.33v-1.16c0-1.46-0.06-2.55-0.19-3.27c-0.13-0.72-0.37-1.37-0.73-1.95c-0.36-0.58-0.92-1.06-1.69-1.45
				c-0.76-0.39-1.63-0.59-2.59-0.59c-1.2,0-2.24,0.3-3.13,0.89c-0.88,0.59-1.45,1.33-1.7,2.21c-0.25,0.88-0.37,2.2-0.37,3.97v6.01
				h2.1v-2.12h12.62v2.12h2.1v-6.83h-2.1V355.77z M719.61,355.77h-6.25v-1.57c0-1.17,0.07-2,0.21-2.5c0.13-0.5,0.46-0.92,0.96-1.26
				c0.5-0.34,1.13-0.51,1.89-0.51c1.19,0,2.02,0.32,2.5,0.96c0.47,0.64,0.71,1.78,0.71,3.43V355.77z"/>
			<path d="M725.98,333.76l-6.13,2.97c-0.57-2.31-1.97-3.47-4.19-3.47c-1.07,0-1.95,0.28-2.67,0.82c-0.71,0.55-1.18,1.24-1.4,2.08
				c-0.22,0.84-0.33,1.97-0.33,3.4v6.83h2.1v-2.31h12.62v2.31h2.1v-7.01h-2.1v2.15h-5.76v-2.37l7.86-3.83v-3.64h-2.1V333.76z
				 M718.11,341.55h-4.75v-2.15c0-0.89,0.05-1.55,0.15-1.98c0.11-0.43,0.34-0.8,0.72-1.09c0.38-0.3,0.84-0.44,1.39-0.44
				c0.65,0,1.16,0.15,1.54,0.44c0.38,0.29,0.64,0.66,0.76,1.12c0.12,0.46,0.18,1.17,0.18,2.13V341.55z"/>
			<polygon points="725.98,326.61 713.36,326.61 713.36,324.8 711.25,324.8 711.25,330.97 713.36,330.97 713.36,329.16 
				725.98,329.16 725.98,330.97 728.08,330.97 728.08,324.8 725.98,324.8 			"/>
			<polygon points="713.36,306.23 711.25,306.23 711.25,313.14 713.36,313.14 713.36,310.75 724.33,310.75 711.25,318.14 
				711.25,323.88 713.36,323.88 713.36,321.47 725.98,321.47 725.98,323.88 728.08,323.88 728.08,316.98 725.98,316.98 
				725.98,319.39 713.89,319.39 728.25,311.32 728.25,308.71 713.36,308.71 			"/>
			<polygon points="717.65,294.34 717.65,292.26 711.25,292.26 711.25,305.89 717.65,305.89 717.65,303.81 713.36,303.81 
				713.36,300.34 725.98,300.34 725.98,302.49 728.08,302.49 728.08,295.61 725.98,295.61 725.98,297.8 713.36,297.8 713.36,294.34 
							"/>
			<path d="M728.08,273.41v-3.83h-2.1v2.56l-1.14,0.88c-0.85-0.68-2.05-1.23-3.61-1.67v-1.78h-2.06v3.45
				c1.51,0.26,2.81,0.7,3.88,1.31l-4.63,3.42c-0.52-1.26-1.06-2.16-1.63-2.71c-0.57-0.55-1.31-0.82-2.2-0.82
				c-1.02,0-1.88,0.39-2.57,1.17c-0.69,0.78-1.03,1.74-1.03,2.86c0,1.09,0.35,2.04,1.04,2.86c0.69,0.82,1.58,1.23,2.66,1.23
				c0.98,0,1.96-0.38,2.94-1.15c1.12,2.56,2.8,3.83,5.04,3.83c1.62,0,2.97-0.57,4.06-1.7c1.08-1.14,1.62-2.58,1.62-4.32
				c0-1.53-0.58-3.02-1.74-4.48L728.08,273.41z M716.61,279.11c-0.89,0.58-1.55,0.87-1.98,0.87c-0.49,0-0.89-0.17-1.2-0.51
				c-0.31-0.34-0.46-0.76-0.46-1.27c0-0.56,0.16-1,0.48-1.29c0.31-0.3,0.67-0.45,1.07-0.45c0.43,0,0.82,0.18,1.17,0.53
				c0.35,0.35,0.73,1.01,1.14,1.98L716.61,279.11z M725.15,281.42c-0.74,0.74-1.6,1.1-2.59,1.1c-1.48,0-2.61-0.87-3.38-2.61
				l5.73-4.09c0.9,0.88,1.34,1.85,1.34,2.93C726.25,279.79,725.88,280.68,725.15,281.42z"/>
			<path d="M720.54,244.13c-0.17,0-0.37,0-0.58,0.01v6.12h2.1v-3.04c1.21,0.18,2.19,0.79,2.93,1.84c0.75,1.05,1.12,2.24,1.12,3.58
				c0,1.71-0.59,3.17-1.76,4.38c-1.18,1.22-2.77,1.82-4.78,1.82c-1.75,0-3.24-0.53-4.49-1.6c-1.24-1.06-1.86-2.52-1.86-4.36
				c0-1.32,0.36-2.5,1.08-3.53c0.72-1.03,1.55-1.74,2.47-2.15v-2.14h-5.53v2.14h1.87c-1.42,1.59-2.14,3.56-2.14,5.9
				c0,2.61,0.81,4.69,2.45,6.21c1.64,1.52,3.69,2.29,6.17,2.29c2.36,0,4.41-0.74,6.14-2.24c1.73-1.49,2.59-3.76,2.59-6.8
				c0-2.54-0.71-4.58-2.13-6.13C724.8,244.91,722.9,244.13,720.54,244.13z"/>
			<path d="M725.98,228.19V230l-6.13,2.97c-0.57-2.31-1.97-3.47-4.19-3.47c-1.07,0-1.95,0.28-2.67,0.82
				c-0.71,0.55-1.18,1.24-1.4,2.08c-0.22,0.84-0.33,1.97-0.33,3.4v6.84h2.1v-2.31h12.62v2.31h2.1v-7h-2.1v2.15h-5.76v-2.37
				l7.86-3.83v-3.4v-0.24v-6.39h-2.1v2.05l-3.82-1.29v-6.06l3.82-1.25v2.09h2.1v-6.59h-2.1v1.88l-12.82,4.71v-2.1h-1.9v8.6h1.9
				v-2.03l12.82,4.59v1.8V228.19z M718.11,237.79h-4.75v-2.15c0-0.89,0.05-1.55,0.15-1.98c0.11-0.43,0.34-0.8,0.72-1.09
				c0.38-0.3,0.84-0.44,1.39-0.44c0.65,0,1.16,0.15,1.54,0.43c0.38,0.29,0.64,0.66,0.76,1.12c0.12,0.46,0.18,1.16,0.18,2.12V237.79z
				 M720.19,221.69l-7.04-2.33v-0.23l7.04-2.24V221.69z"/>
			<path d="M711.25,210.2h2.1v-2.12h12.62v2.12h2.1v-6.83h-2.1v2.18h-4.33v-1.16c0-1.46-0.06-2.55-0.19-3.27
				c-0.13-0.72-0.37-1.37-0.73-1.95c-0.36-0.58-0.92-1.06-1.69-1.45c-0.76-0.39-1.63-0.59-2.59-0.59c-1.2,0-2.24,0.3-3.13,0.89
				c-0.88,0.59-1.45,1.33-1.7,2.21c-0.25,0.88-0.37,2.2-0.37,3.97V210.2z M713.36,203.97c0-1.17,0.07-2,0.21-2.51
				c0.13-0.5,0.46-0.92,0.96-1.26c0.5-0.34,1.13-0.51,1.89-0.51c1.19,0,2.02,0.32,2.5,0.96c0.47,0.64,0.71,1.78,0.71,3.43v1.45
				h-6.25V203.97z"/>
			<polygon points="711.25,189.39 711.25,195.83 713.36,195.83 713.36,193.92 725.98,193.92 725.98,195.83 728.08,195.83 
				728.08,189.39 725.98,189.39 725.98,191.38 720.28,191.38 720.28,184.06 725.98,184.06 725.98,186.03 728.08,186.03 
				728.08,179.59 725.98,179.59 725.98,181.52 713.36,181.52 713.36,179.59 711.25,179.59 711.25,186.03 713.36,186.03 
				713.36,184.06 718.17,184.06 718.17,191.38 713.36,191.38 713.36,189.39 			"/>
			<polygon points="711.25,172 711.25,178.17 713.36,178.17 713.36,176.35 725.98,176.35 725.98,178.17 728.08,178.17 728.08,172 
				725.98,172 725.98,173.81 713.36,173.81 713.36,172 			"/>
			<path d="M722.45,153.56l-1.22,2.19c1.55,0.44,2.74,1.18,3.57,2.25c0.83,1.07,1.25,2.25,1.25,3.55c0,1.58-0.6,2.95-1.8,4.1
				c-1.2,1.15-2.75,1.73-4.65,1.73c-1.85,0-3.37-0.54-4.58-1.61c-1.21-1.08-1.82-2.45-1.82-4.13c0-1.11,0.3-2.18,0.9-3.18
				c0.6-1.01,1.45-1.76,2.55-2.24v-2.18h-5.41v2.18h1.54c-1.2,1.5-1.8,3.35-1.8,5.55c0,2.49,0.79,4.51,2.37,6.06
				c1.58,1.55,3.7,2.32,6.38,2.32c2.44,0,4.48-0.77,6.14-2.31c1.65-1.54,2.48-3.58,2.48-6.13c0-1.94-0.51-3.66-1.54-5.16
				C725.77,155.05,724.33,154.05,722.45,153.56z"/>
		</g>
	</g>
</g>
<path d="M297.27,629.9h0.89l2.52,6.1l2.53-6.1h0.86l-3.04,7.13h-0.71L297.27,629.9z"/>
<path d="M305.41,629.75h0.89v0.86h-0.89V629.75z M305.46,631.75h0.78v5.23h-0.78V631.75z"/>
<path d="M307.93,635.46v-0.02c0-1.1,0.91-1.69,2.24-1.69c0.67,0,1.14,0.09,1.61,0.22v-0.18c0-0.94-0.58-1.43-1.56-1.43
	c-0.62,0-1.1,0.16-1.59,0.38l-0.23-0.64c0.58-0.26,1.14-0.43,1.9-0.43c0.74,0,1.3,0.19,1.69,0.58c0.35,0.35,0.54,0.86,0.54,1.53v3.2
	h-0.75v-0.79c-0.36,0.48-0.97,0.9-1.89,0.9C308.91,637.09,307.93,636.53,307.93,635.46z M311.78,635.06v-0.51
	c-0.38-0.11-0.9-0.22-1.54-0.22c-0.98,0-1.53,0.43-1.53,1.08v0.02c0,0.66,0.61,1.04,1.31,1.04
	C310.99,636.47,311.78,635.89,311.78,635.06z"/>
<path d="M317.89,629.9h0.81l2.58,3.86l2.58-3.86h0.81v7.08h-0.8v-5.73l-2.58,3.79h-0.04l-2.58-3.78v5.72h-0.78V629.9z"/>
<path d="M326.48,634.39v-0.02c0-1.48,1.15-2.73,2.73-2.73c1.57,0,2.72,1.23,2.72,2.71v0.02c0,1.48-1.16,2.73-2.74,2.73
	C327.62,637.1,326.48,635.87,326.48,634.39z M331.13,634.39v-0.02c0-1.12-0.84-2.04-1.94-2.04c-1.13,0-1.91,0.92-1.91,2.02v0.02
	c0,1.12,0.83,2.03,1.93,2.03C330.34,636.4,331.13,635.49,331.13,634.39z"/>
<path d="M333.6,631.75h0.78v0.91c0.34-0.57,0.89-1.02,1.79-1.02c1.26,0,2,0.85,2,2.09v3.25h-0.78v-3.05c0-0.97-0.53-1.58-1.45-1.58
	c-0.9,0-1.57,0.66-1.57,1.64v2.99h-0.78V631.75z"/>
<path d="M340.37,635.59v-3.16h-0.73v-0.69h0.73v-1.58h0.78v1.58h1.66v0.69h-1.66v3.05c0,0.64,0.35,0.87,0.88,0.87
	c0.26,0,0.49-0.05,0.76-0.18v0.67c-0.27,0.14-0.57,0.22-0.94,0.22C341.01,637.07,340.37,636.65,340.37,635.59z"/>
<path d="M343.98,634.38v-0.02c0-1.51,1.06-2.72,2.51-2.72c1.55,0,2.44,1.23,2.44,2.76c0,0.1,0,0.16-0.01,0.25h-4.15
	c0.11,1.13,0.91,1.77,1.84,1.77c0.72,0,1.22-0.29,1.65-0.74l0.49,0.43c-0.53,0.59-1.16,0.98-2.15,0.98
	C345.16,637.1,343.98,636,343.98,634.38z M348.14,634.08c-0.08-0.95-0.63-1.78-1.67-1.78c-0.91,0-1.6,0.76-1.7,1.78H348.14z"/>
<path d="M354,629.9h2.65c1.6,0,2.65,0.85,2.65,2.25v0.02c0,1.53-1.27,2.32-2.78,2.32h-1.72v2.5H354V629.9z M356.55,633.75
	c1.17,0,1.94-0.63,1.94-1.56v-0.02c0-1.01-0.76-1.54-1.9-1.54h-1.79v3.12H356.55z"/>
<path d="M360.4,635.46v-0.02c0-1.1,0.91-1.69,2.24-1.69c0.67,0,1.14,0.09,1.61,0.22v-0.18c0-0.94-0.58-1.43-1.56-1.43
	c-0.62,0-1.1,0.16-1.59,0.38l-0.23-0.64c0.58-0.26,1.14-0.43,1.9-0.43c0.74,0,1.3,0.19,1.69,0.58c0.35,0.35,0.54,0.86,0.54,1.53v3.2
	h-0.75v-0.79c-0.36,0.48-0.97,0.9-1.89,0.9C361.38,637.09,360.4,636.53,360.4,635.46z M364.25,635.06v-0.51
	c-0.38-0.11-0.9-0.22-1.54-0.22c-0.98,0-1.53,0.43-1.53,1.08v0.02c0,0.66,0.61,1.04,1.31,1.04
	C363.46,636.47,364.25,635.89,364.25,635.06z"/>
<path d="M366.48,636.31l0.39-0.56c0.57,0.43,1.19,0.67,1.81,0.67c0.63,0,1.08-0.32,1.08-0.83v-0.02c0-0.53-0.62-0.73-1.3-0.92
	c-0.82-0.23-1.73-0.52-1.73-1.48v-0.02c0-0.9,0.75-1.5,1.78-1.5c0.64,0,1.35,0.22,1.88,0.58l-0.35,0.59
	c-0.49-0.31-1.04-0.51-1.55-0.51c-0.62,0-1.01,0.32-1.01,0.76v0.02c0,0.5,0.65,0.69,1.35,0.9c0.81,0.24,1.68,0.56,1.68,1.5v0.02
	c0,0.99-0.82,1.57-1.86,1.57C367.9,637.08,367.07,636.79,366.48,636.31z"/>
<path d="M372.39,635.59v-3.16h-0.73v-0.69h0.73v-1.58h0.78v1.58h1.66v0.69h-1.66v3.05c0,0.64,0.35,0.87,0.88,0.87
	c0.26,0,0.49-0.05,0.76-0.18v0.67c-0.27,0.14-0.57,0.22-0.94,0.22C373.03,637.07,372.39,636.65,372.39,635.59z"/>
<path d="M376,634.38v-0.02c0-1.51,1.06-2.72,2.51-2.72c1.55,0,2.44,1.23,2.44,2.76c0,0.1,0,0.16-0.01,0.25h-4.15
	c0.11,1.13,0.91,1.77,1.84,1.77c0.72,0,1.22-0.29,1.65-0.74l0.49,0.43c-0.53,0.59-1.16,0.98-2.15,0.98
	C377.18,637.1,376,636,376,634.38z M380.16,634.08c-0.08-0.95-0.63-1.78-1.67-1.78c-0.91,0-1.6,0.76-1.7,1.78H380.16z"/>
<path d="M382.65,629.59h0.78v7.38h-0.78V629.59z"/>
<path d="M385.58,629.59h0.78v7.38h-0.78V629.59z"/>
<path d="M388.12,634.39v-0.02c0-1.48,1.15-2.73,2.73-2.73c1.57,0,2.72,1.23,2.72,2.71v0.02c0,1.48-1.16,2.73-2.74,2.73
	C389.26,637.1,388.12,635.87,388.12,634.39z M392.77,634.39v-0.02c0-1.12-0.84-2.04-1.94-2.04c-1.13,0-1.91,0.92-1.91,2.02v0.02
	c0,1.12,0.83,2.03,1.93,2.03C391.98,636.4,392.77,635.49,392.77,634.39z"/>
<path d="M394.64,637.86c0.51-0.18,0.72-0.44,0.68-0.88h-0.36v-1.06h0.93v0.91c0,0.82-0.35,1.21-1.12,1.39L394.64,637.86z"/>
<path d="M404.81,630.63h-3.89v-0.73h4.8v0.6l-3.22,6.48h-0.89L404.81,630.63z"/>
<path d="M409.59,628.91h0.72l-4.69,9.37h-0.72L409.59,628.91z"/>
<path d="M410.8,633.46v-0.02c0-2,1.5-3.66,3.58-3.66c1.28,0,2.05,0.46,2.76,1.12l-0.55,0.59c-0.6-0.57-1.26-0.97-2.23-0.97
	c-1.57,0-2.74,1.27-2.74,2.9v0.02c0,1.64,1.18,2.92,2.74,2.92c0.97,0,1.61-0.37,2.29-1.02l0.53,0.52c-0.74,0.75-1.55,1.24-2.83,1.24
	C412.31,637.1,410.8,635.49,410.8,633.46z"/>
<path d="M421.85,633.53h2.81v0.82h-2.81V633.53z"/>
<path d="M429.4,635.84l0.58-0.52c0.55,0.67,1.2,1.05,2.07,1.05c0.86,0,1.55-0.55,1.55-1.38v-0.02c0-0.88-0.82-1.37-1.98-1.37h-0.46
	l-0.16-0.48l2.24-2.52h-3.46v-0.72h4.52v0.59l-2.23,2.47c1.23,0.1,2.34,0.7,2.34,1.99v0.02c0,1.26-1.05,2.13-2.37,2.13
	C430.86,637.1,429.98,636.58,429.4,635.84z"/>
<path d="M439.7,630.63h-3.89v-0.73h4.8v0.6l-3.22,6.48h-0.89L439.7,630.63z"/>
<path d="M441.84,633.46v-0.02c0-1.98,1.18-3.66,3-3.66c1.82,0,2.97,1.66,2.97,3.64v0.02c0,1.98-1.17,3.66-2.99,3.66
	C442.99,637.1,441.84,635.44,441.84,633.46z M446.99,633.46v-0.02c0-1.55-0.85-2.93-2.16-2.93c-1.32,0-2.15,1.36-2.15,2.91v0.02
	c0,1.55,0.85,2.93,2.17,2.93C446.17,636.37,446.99,635.01,446.99,633.46z"/>
<path d="M449.25,635.98l0.53-0.58c0.62,0.6,1.29,0.97,2.01,0.97c1.01,0,1.71-0.67,1.71-1.57v-0.02c0-0.88-0.73-1.49-1.76-1.49
	c-0.6,0-1.07,0.18-1.49,0.4l-0.54-0.35l0.2-3.45h4.08v0.74h-3.38l-0.15,2.27c0.41-0.18,0.81-0.31,1.4-0.31
	c1.38,0,2.45,0.82,2.45,2.16v0.02c0,1.39-1.05,2.33-2.53,2.33C450.77,637.1,449.89,636.61,449.25,635.98z"/>
<path d="M459.45,630.63h-3.89v-0.73h4.8v0.6l-3.22,6.48h-0.89L459.45,630.63z"/>
<path d="M465.01,635.95l0.5-0.59c0.74,0.67,1.45,1,2.43,1c0.95,0,1.58-0.51,1.58-1.2v-0.02c0-0.66-0.35-1.03-1.84-1.35
	c-1.63-0.35-2.38-0.88-2.38-2.04v-0.02c0-1.11,0.98-1.93,2.33-1.93c1.03,0,1.77,0.29,2.49,0.87l-0.47,0.62
	c-0.66-0.54-1.31-0.77-2.04-0.77c-0.92,0-1.51,0.51-1.51,1.14v0.02c0,0.67,0.36,1.04,1.92,1.38c1.58,0.34,2.31,0.92,2.31,2v0.02
	c0,1.21-1.01,2-2.42,2C466.78,637.08,465.86,636.71,465.01,635.95z"/>
<path d="M471.98,635.92h0.93v1.06h-0.93V635.92z"/>
<path d="M477.94,633.46v-0.02c0-1.94,1.43-3.66,3.55-3.66c1.19,0,1.93,0.34,2.64,0.94l-0.52,0.61c-0.55-0.48-1.15-0.81-2.15-0.81
	c-1.57,0-2.69,1.33-2.69,2.9v0.02c0,1.69,1.08,2.94,2.8,2.94c0.81,0,1.56-0.31,2.04-0.71v-1.76h-2.15v-0.72h2.92v2.82
	c-0.66,0.59-1.65,1.08-2.84,1.08C479.32,637.1,477.94,635.48,477.94,633.46z"/>
<path d="M486.34,629.75h0.89v0.86h-0.89V629.75z M486.4,631.75h0.78v5.23h-0.78V631.75z"/>
<path d="M488.93,634.39v-0.02c0-1.48,1.15-2.73,2.73-2.73c1.57,0,2.72,1.23,2.72,2.71v0.02c0,1.48-1.16,2.73-2.74,2.73
	C490.07,637.1,488.93,635.87,488.93,634.39z M493.58,634.39v-0.02c0-1.12-0.84-2.04-1.94-2.04c-1.13,0-1.91,0.92-1.91,2.02v0.02
	c0,1.12,0.83,2.03,1.93,2.03C492.79,636.4,493.58,635.49,493.58,634.39z"/>
<path d="M495.24,631.75h0.86l1.76,4.34l1.77-4.34h0.84l-2.27,5.27h-0.69L495.24,631.75z"/>
<path d="M501.31,635.46v-0.02c0-1.1,0.91-1.69,2.24-1.69c0.67,0,1.14,0.09,1.61,0.22v-0.18c0-0.94-0.58-1.43-1.56-1.43
	c-0.62,0-1.1,0.16-1.59,0.38l-0.23-0.64c0.58-0.26,1.14-0.43,1.9-0.43c0.74,0,1.3,0.19,1.69,0.58c0.35,0.35,0.54,0.86,0.54,1.53v3.2
	h-0.75v-0.79c-0.36,0.48-0.97,0.9-1.89,0.9C502.29,637.09,501.31,636.53,501.31,635.46z M505.17,635.06v-0.51
	c-0.38-0.11-0.9-0.22-1.54-0.22c-0.98,0-1.53,0.43-1.53,1.08v0.02c0,0.66,0.61,1.04,1.31,1.04
	C504.38,636.47,505.17,635.89,505.17,635.06z"/>
<path d="M507.83,631.75h0.78v0.91c0.34-0.57,0.89-1.02,1.79-1.02c1.26,0,2,0.85,2,2.09v3.25h-0.78v-3.05c0-0.97-0.53-1.58-1.45-1.58
	c-0.9,0-1.57,0.66-1.57,1.64v2.99h-0.78V631.75z"/>
<path d="M514.33,631.75h0.78v0.91c0.34-0.57,0.89-1.02,1.79-1.02c1.26,0,2,0.85,2,2.09v3.25h-0.78v-3.05c0-0.97-0.53-1.58-1.45-1.58
	c-0.9,0-1.57,0.66-1.57,1.64v2.99h-0.78V631.75z"/>
<path d="M520.85,629.75h0.89v0.86h-0.89V629.75z M520.9,631.75h0.78v5.23h-0.78V631.75z"/>
<path d="M527.2,629.9h0.8v6.34h3.98v0.74h-4.78V629.9z"/>
<path d="M533.47,635v-3.25h0.78v3.05c0,0.97,0.53,1.58,1.45,1.58c0.89,0,1.57-0.66,1.57-1.64v-2.99h0.77v5.23h-0.77v-0.91
	c-0.35,0.57-0.89,1.02-1.79,1.02C534.21,637.09,533.47,636.24,533.47,635z"/>
<path d="M540.05,631.75h0.78v1.05c0.43-0.63,1.04-1.16,2-1.16c1.25,0,2.5,0.99,2.5,2.71v0.02c0,1.71-1.23,2.72-2.5,2.72
	c-0.97,0-1.6-0.53-2-1.11v2.62h-0.78V631.75z M544.54,634.38v-0.02c0-1.23-0.85-2.02-1.84-2.02c-0.97,0-1.89,0.82-1.89,2.01v0.02
	c0,1.21,0.92,2.02,1.89,2.02C543.71,636.39,544.54,635.64,544.54,634.38z"/>
<path d="M546.64,635.46v-0.02c0-1.1,0.91-1.69,2.24-1.69c0.67,0,1.14,0.09,1.61,0.22v-0.18c0-0.94-0.58-1.43-1.56-1.43
	c-0.62,0-1.1,0.16-1.59,0.38l-0.23-0.64c0.58-0.26,1.14-0.43,1.9-0.43c0.74,0,1.3,0.19,1.69,0.58c0.35,0.35,0.54,0.86,0.54,1.53v3.2
	h-0.75v-0.79c-0.36,0.48-0.97,0.9-1.89,0.9C547.63,637.09,546.64,636.53,546.64,635.46z M550.5,635.06v-0.51
	c-0.38-0.11-0.9-0.22-1.54-0.22c-0.98,0-1.53,0.43-1.53,1.08v0.02c0,0.66,0.61,1.04,1.31,1.04
	C549.71,636.47,550.5,635.89,550.5,635.06z"/>
<path d="M553.39,635.59v-3.16h-0.73v-0.69h0.73v-1.58h0.78v1.58h1.66v0.69h-1.66v3.05c0,0.64,0.35,0.87,0.88,0.87
	c0.26,0,0.49-0.05,0.76-0.18v0.67c-0.27,0.14-0.57,0.22-0.94,0.22C554.02,637.07,553.39,636.65,553.39,635.59z"/>
<path d="M556.99,634.39v-0.02c0-1.48,1.15-2.73,2.73-2.73c1.57,0,2.72,1.23,2.72,2.71v0.02c0,1.48-1.16,2.73-2.74,2.73
	C558.14,637.1,556.99,635.87,556.99,634.39z M561.65,634.39v-0.02c0-1.12-0.84-2.04-1.94-2.04c-1.13,0-1.91,0.92-1.91,2.02v0.02
	c0,1.12,0.83,2.03,1.93,2.03C560.86,636.4,561.65,635.49,561.65,634.39z"/>
<path d="M564.39,635.59v-3.16h-0.73v-0.69h0.73v-1.58h0.78v1.58h1.66v0.69h-1.66v3.05c0,0.64,0.35,0.87,0.88,0.87
	c0.26,0,0.49-0.05,0.76-0.18v0.67c-0.27,0.14-0.57,0.22-0.94,0.22C565.03,637.07,564.39,636.65,564.39,635.59z"/>
<path d="M568,634.39v-0.02c0-1.48,1.15-2.73,2.73-2.73c1.57,0,2.72,1.23,2.72,2.71v0.02c0,1.48-1.16,2.73-2.74,2.73
	C569.14,637.1,568,635.87,568,634.39z M572.65,634.39v-0.02c0-1.12-0.84-2.04-1.94-2.04c-1.13,0-1.91,0.92-1.91,2.02v0.02
	c0,1.12,0.83,2.03,1.93,2.03C571.86,636.4,572.65,635.49,572.65,634.39z"/>
<path d="M578.25,634.08c0-1.86,1-3.32,2.8-4.33l0.33,0.52c-1.54,0.98-2.35,2.19-2.35,3.81c0,1.62,0.81,2.83,2.35,3.81l-0.33,0.52
	C579.25,637.39,578.25,635.94,578.25,634.08z"/>
<path d="M582.62,629.9h0.89l2.52,6.1l2.53-6.1h0.86l-3.04,7.13h-0.71L582.62,629.9z"/>
<path d="M591.08,629.9h3.04c0.87,0,1.57,0.26,2.01,0.71c0.34,0.34,0.55,0.84,0.55,1.4v0.02c0,1.17-0.81,1.86-1.92,2.06l2.17,2.89
	h-0.98l-2.05-2.75h-2.02v2.75h-0.8V629.9z M594.05,633.51c1.06,0,1.82-0.55,1.82-1.46v-0.02c0-0.87-0.67-1.4-1.81-1.4h-2.18v2.87
	H594.05z"/>
<path d="M598.22,637.89c1.54-0.98,2.35-2.19,2.35-3.81c0-1.62-0.81-2.83-2.35-3.81l0.33-0.52c1.8,1.01,2.8,2.47,2.8,4.33
	c0,1.86-1,3.32-2.8,4.33L598.22,637.89z"/>
<path d="M297.78,644.27h2.64c0.55,0,1.06,0.09,1.52,0.27c0.46,0.18,0.86,0.43,1.19,0.74c0.33,0.32,0.59,0.69,0.77,1.12
	s0.27,0.89,0.27,1.39v0.02c0,0.5-0.09,0.96-0.27,1.4c-0.18,0.43-0.44,0.8-0.77,1.12c-0.33,0.32-0.73,0.57-1.19,0.75
	c-0.46,0.18-0.97,0.27-1.52,0.27h-2.64V644.27z M300.41,650.22c0.37,0,0.71-0.06,1.01-0.18c0.3-0.12,0.56-0.28,0.77-0.5
	c0.21-0.21,0.38-0.47,0.5-0.76c0.12-0.29,0.18-0.61,0.18-0.96v-0.02c0-0.34-0.06-0.67-0.18-0.96c-0.12-0.3-0.28-0.55-0.5-0.77
	c-0.21-0.21-0.47-0.38-0.77-0.5c-0.3-0.12-0.64-0.18-1.01-0.18h-1.4v4.83H300.41z"/>
<path d="M308.81,651.35v-0.66c-0.18,0.22-0.41,0.4-0.7,0.55c-0.28,0.15-0.63,0.22-1.03,0.22c-0.26,0-0.5-0.04-0.73-0.11
	c-0.23-0.07-0.43-0.18-0.6-0.31c-0.17-0.14-0.31-0.31-0.41-0.52c-0.1-0.21-0.16-0.44-0.16-0.71v-0.02c0-0.3,0.05-0.55,0.16-0.77
	c0.11-0.22,0.26-0.4,0.45-0.55c0.19-0.14,0.42-0.25,0.69-0.32c0.27-0.07,0.55-0.11,0.86-0.11c0.32,0,0.6,0.02,0.82,0.06
	c0.23,0.04,0.44,0.09,0.65,0.16v-0.1c0-0.37-0.11-0.65-0.34-0.85c-0.23-0.2-0.55-0.29-0.98-0.29c-0.3,0-0.57,0.03-0.81,0.09
	c-0.24,0.06-0.48,0.14-0.72,0.24l-0.33-0.98c0.3-0.13,0.6-0.24,0.91-0.32c0.31-0.08,0.68-0.12,1.12-0.12c0.8,0,1.38,0.2,1.77,0.59
	c0.38,0.39,0.58,0.95,0.58,1.66v3.16H308.81z M308.84,649.11c-0.15-0.06-0.34-0.11-0.55-0.15c-0.21-0.04-0.44-0.06-0.67-0.06
	c-0.38,0-0.68,0.07-0.9,0.22c-0.22,0.15-0.32,0.35-0.32,0.61v0.02c0,0.26,0.1,0.45,0.3,0.59c0.2,0.13,0.44,0.2,0.73,0.2
	c0.2,0,0.39-0.03,0.56-0.08c0.17-0.05,0.32-0.13,0.45-0.23c0.13-0.1,0.23-0.22,0.3-0.35c0.07-0.14,0.11-0.29,0.11-0.46V649.11z"/>
<path d="M310.97,646.01h1.31l1.44,3.92l1.45-3.92h1.28l-2.18,5.38h-1.1L310.97,646.01z"/>
<path d="M317.51,644.03h1.32v1.16h-1.32V644.03z M317.56,646.01h1.23v5.34h-1.23V646.01z"/>
<path d="M322.58,651.46c-0.32,0-0.62-0.06-0.92-0.18c-0.3-0.12-0.56-0.3-0.79-0.54c-0.23-0.24-0.41-0.53-0.56-0.87
	c-0.14-0.34-0.21-0.74-0.21-1.18v-0.02c0-0.44,0.07-0.84,0.21-1.18c0.14-0.34,0.32-0.63,0.55-0.87c0.23-0.24,0.49-0.41,0.79-0.54
	c0.3-0.12,0.61-0.18,0.92-0.18c0.44,0,0.8,0.09,1.09,0.28c0.29,0.19,0.53,0.41,0.73,0.66v-2.87h1.23v7.38h-1.23l0.01-0.89
	c-0.2,0.28-0.44,0.51-0.73,0.71C323.38,651.36,323.02,651.46,322.58,651.46z M322.87,650.4c0.2,0,0.4-0.04,0.58-0.12
	c0.19-0.08,0.35-0.2,0.49-0.35c0.14-0.15,0.25-0.33,0.34-0.54c0.08-0.21,0.13-0.44,0.13-0.7v-0.02c0-0.26-0.04-0.49-0.13-0.7
	c-0.08-0.21-0.2-0.39-0.34-0.54c-0.14-0.15-0.31-0.26-0.49-0.34c-0.19-0.08-0.38-0.12-0.58-0.12c-0.21,0-0.4,0.04-0.59,0.12
	c-0.18,0.08-0.35,0.19-0.49,0.34c-0.14,0.15-0.25,0.33-0.33,0.54c-0.08,0.21-0.12,0.45-0.12,0.71v0.02c0,0.26,0.04,0.49,0.12,0.7
	c0.08,0.21,0.19,0.39,0.33,0.54c0.14,0.15,0.3,0.26,0.49,0.34C322.47,650.36,322.66,650.4,322.87,650.4z"/>
<path d="M329.6,651.47c-0.38,0-0.74-0.07-1.08-0.2c-0.33-0.13-0.62-0.32-0.87-0.57c-0.25-0.24-0.44-0.53-0.58-0.87
	c-0.14-0.34-0.21-0.72-0.21-1.13v-0.02c0-0.38,0.06-0.74,0.19-1.08c0.13-0.34,0.31-0.63,0.54-0.88c0.23-0.25,0.51-0.45,0.82-0.6
	c0.32-0.15,0.67-0.22,1.05-0.22c0.42,0,0.8,0.08,1.12,0.23c0.32,0.16,0.59,0.36,0.8,0.63c0.21,0.26,0.37,0.57,0.48,0.91
	c0.11,0.35,0.16,0.71,0.16,1.1c0,0.05,0,0.11,0,0.17c0,0.06-0.01,0.12-0.02,0.18h-3.92c0.07,0.44,0.24,0.77,0.52,1.01
	c0.28,0.23,0.62,0.35,1.02,0.35c0.3,0,0.57-0.05,0.79-0.16c0.22-0.11,0.44-0.27,0.66-0.48l0.72,0.64c-0.26,0.3-0.56,0.55-0.91,0.73
	C330.51,651.38,330.09,651.47,329.6,651.47z M330.81,648.3c-0.02-0.2-0.06-0.38-0.13-0.55c-0.07-0.17-0.16-0.32-0.27-0.44
	s-0.25-0.22-0.41-0.3c-0.16-0.07-0.34-0.11-0.54-0.11c-0.38,0-0.69,0.13-0.93,0.39c-0.25,0.26-0.4,0.6-0.45,1.02H330.81z"/>
<path d="M336.43,644.27h3.17c0.81,0,1.43,0.21,1.85,0.63c0.32,0.32,0.47,0.71,0.47,1.17v0.02c0,0.22-0.03,0.41-0.09,0.57
	c-0.06,0.17-0.13,0.31-0.22,0.43c-0.09,0.12-0.2,0.23-0.32,0.33c-0.12,0.09-0.25,0.18-0.38,0.24c0.21,0.07,0.4,0.16,0.57,0.26
	c0.17,0.1,0.32,0.21,0.44,0.35c0.12,0.13,0.22,0.29,0.29,0.47c0.07,0.18,0.1,0.39,0.1,0.64v0.02c0,0.32-0.06,0.6-0.19,0.84
	c-0.12,0.24-0.3,0.44-0.53,0.61c-0.23,0.16-0.5,0.28-0.83,0.37c-0.32,0.08-0.68,0.13-1.07,0.13h-3.27V644.27z M339.36,647.25
	c0.4,0,0.72-0.08,0.97-0.24c0.24-0.16,0.36-0.4,0.36-0.72v-0.02c0-0.28-0.11-0.5-0.32-0.66c-0.21-0.16-0.52-0.24-0.92-0.24h-1.78
	v1.88H339.36z M339.72,650.24c0.42,0,0.76-0.08,1-0.24c0.24-0.16,0.36-0.4,0.36-0.73v-0.02c0-0.3-0.12-0.54-0.36-0.7
	c-0.24-0.17-0.6-0.25-1.09-0.25h-1.97v1.94H339.72z"/>
<path d="M346.03,651.47c-0.38,0-0.74-0.07-1.08-0.2c-0.33-0.13-0.62-0.32-0.87-0.57c-0.25-0.24-0.44-0.53-0.58-0.87
	c-0.14-0.34-0.21-0.72-0.21-1.13v-0.02c0-0.38,0.06-0.74,0.19-1.08c0.13-0.34,0.31-0.63,0.54-0.88c0.23-0.25,0.51-0.45,0.82-0.6
	c0.32-0.15,0.67-0.22,1.05-0.22c0.42,0,0.8,0.08,1.12,0.23c0.32,0.16,0.59,0.36,0.8,0.63c0.21,0.26,0.37,0.57,0.48,0.91
	c0.11,0.35,0.16,0.71,0.16,1.1c0,0.05,0,0.11,0,0.17c0,0.06-0.01,0.12-0.02,0.18h-3.92c0.07,0.44,0.24,0.77,0.52,1.01
	s0.62,0.35,1.02,0.35c0.3,0,0.57-0.05,0.79-0.16c0.22-0.11,0.44-0.27,0.66-0.48l0.72,0.64c-0.26,0.3-0.56,0.55-0.91,0.73
	C346.95,651.38,346.52,651.47,346.03,651.47z M347.25,648.3c-0.02-0.2-0.06-0.38-0.13-0.55c-0.07-0.17-0.16-0.32-0.27-0.44
	s-0.25-0.22-0.41-0.3c-0.16-0.07-0.34-0.11-0.54-0.11c-0.38,0-0.69,0.13-0.93,0.39c-0.25,0.26-0.4,0.6-0.45,1.02H347.25z"/>
<path d="M349.69,646.01h1.23v1.2c0.17-0.4,0.41-0.73,0.72-0.97s0.7-0.35,1.17-0.33v1.29h-0.07c-0.27,0-0.52,0.04-0.74,0.13
	c-0.22,0.09-0.41,0.22-0.58,0.39c-0.16,0.17-0.29,0.4-0.37,0.66c-0.09,0.27-0.13,0.57-0.13,0.92v2.03h-1.23V646.01z"/>
<path d="M355.67,651.44c-0.22,0-0.43-0.03-0.62-0.08c-0.19-0.05-0.36-0.14-0.49-0.26c-0.14-0.12-0.25-0.28-0.32-0.48
	c-0.07-0.2-0.11-0.45-0.11-0.74v-2.81h-0.68v-1.05h0.68v-1.47h1.23v1.47h1.44v1.05h-1.44v2.62c0,0.24,0.06,0.41,0.17,0.51
	c0.11,0.1,0.28,0.16,0.49,0.16c0.26,0,0.52-0.06,0.76-0.18v1c-0.15,0.09-0.32,0.16-0.49,0.2
	C356.1,651.41,355.89,651.44,355.67,651.44z"/>
<path d="M361.27,651.35v-0.66c-0.18,0.22-0.41,0.4-0.7,0.55c-0.28,0.15-0.63,0.22-1.03,0.22c-0.26,0-0.5-0.04-0.73-0.11
	c-0.23-0.07-0.43-0.18-0.6-0.31c-0.17-0.14-0.31-0.31-0.41-0.52c-0.1-0.21-0.16-0.44-0.16-0.71v-0.02c0-0.3,0.05-0.55,0.16-0.77
	c0.11-0.22,0.26-0.4,0.45-0.55c0.19-0.14,0.42-0.25,0.69-0.32c0.27-0.07,0.55-0.11,0.86-0.11c0.32,0,0.6,0.02,0.82,0.06
	c0.23,0.04,0.44,0.09,0.65,0.16v-0.1c0-0.37-0.11-0.65-0.34-0.85s-0.55-0.29-0.98-0.29c-0.3,0-0.57,0.03-0.81,0.09
	c-0.24,0.06-0.48,0.14-0.72,0.24l-0.33-0.98c0.3-0.13,0.6-0.24,0.91-0.32c0.31-0.08,0.68-0.12,1.12-0.12c0.8,0,1.38,0.2,1.77,0.59
	c0.38,0.39,0.58,0.95,0.58,1.66v3.16H361.27z M361.31,649.11c-0.15-0.06-0.34-0.11-0.55-0.15c-0.21-0.04-0.44-0.06-0.67-0.06
	c-0.38,0-0.68,0.07-0.9,0.22s-0.32,0.35-0.32,0.61v0.02c0,0.26,0.1,0.45,0.3,0.59c0.2,0.13,0.44,0.2,0.73,0.2
	c0.2,0,0.39-0.03,0.56-0.08c0.17-0.05,0.32-0.13,0.45-0.23c0.13-0.1,0.23-0.22,0.3-0.35c0.07-0.14,0.11-0.29,0.11-0.46V649.11z"/>
<path d="M366.32,652.98c-0.89,0-1.68-0.21-2.39-0.63l0.45-0.92c0.28,0.18,0.58,0.31,0.89,0.41c0.31,0.1,0.65,0.15,1.01,0.15
	c0.55,0,0.96-0.14,1.25-0.42c0.29-0.28,0.43-0.69,0.43-1.23v-0.42c-0.22,0.29-0.48,0.53-0.78,0.71s-0.66,0.27-1.1,0.27
	c-0.32,0-0.62-0.06-0.91-0.17c-0.29-0.11-0.55-0.28-0.77-0.49c-0.23-0.21-0.41-0.47-0.54-0.78c-0.13-0.31-0.2-0.66-0.2-1.05v-0.02
	c0-0.39,0.07-0.74,0.2-1.06c0.13-0.31,0.31-0.58,0.54-0.79c0.23-0.21,0.49-0.38,0.78-0.49c0.29-0.11,0.59-0.17,0.9-0.17
	c0.45,0,0.82,0.09,1.12,0.27c0.29,0.18,0.54,0.39,0.75,0.64v-0.8h1.22v4.25c0,0.89-0.23,1.56-0.68,2.01
	c-0.24,0.24-0.55,0.42-0.91,0.54C367.23,652.92,366.8,652.98,366.32,652.98z M366.42,649.89c0.21,0,0.41-0.04,0.6-0.11
	c0.19-0.07,0.36-0.17,0.5-0.3c0.14-0.13,0.25-0.29,0.34-0.46c0.08-0.18,0.13-0.38,0.13-0.59v-0.02c0-0.22-0.04-0.42-0.13-0.6
	c-0.08-0.18-0.2-0.33-0.34-0.46c-0.14-0.13-0.31-0.23-0.5-0.3c-0.19-0.07-0.39-0.11-0.6-0.11c-0.22,0-0.41,0.04-0.6,0.11
	c-0.18,0.07-0.34,0.17-0.48,0.3c-0.14,0.13-0.25,0.28-0.32,0.46c-0.08,0.18-0.12,0.38-0.12,0.6v0.02c0,0.22,0.04,0.42,0.12,0.6
	c0.08,0.18,0.19,0.33,0.32,0.46c0.13,0.13,0.29,0.23,0.48,0.3C366.01,649.86,366.21,649.89,366.42,649.89z"/>
<path d="M370.72,646.01h1.23v0.84c0.09-0.13,0.18-0.25,0.29-0.36c0.1-0.11,0.22-0.21,0.36-0.3c0.14-0.09,0.29-0.16,0.45-0.21
	c0.16-0.05,0.35-0.08,0.56-0.08c0.6,0,1.07,0.19,1.4,0.56c0.33,0.37,0.49,0.87,0.49,1.5v3.4h-1.23v-3.03c0-0.42-0.1-0.74-0.3-0.96
	c-0.2-0.22-0.48-0.34-0.84-0.34c-0.35,0-0.64,0.12-0.86,0.35c-0.22,0.23-0.33,0.56-0.33,0.97v3.01h-1.23V646.01z"/>
<path d="M380.25,651.35v-0.66c-0.18,0.22-0.41,0.4-0.7,0.55c-0.28,0.15-0.63,0.22-1.03,0.22c-0.26,0-0.5-0.04-0.73-0.11
	c-0.23-0.07-0.43-0.18-0.6-0.31c-0.17-0.14-0.31-0.31-0.41-0.52c-0.1-0.21-0.16-0.44-0.16-0.71v-0.02c0-0.3,0.05-0.55,0.16-0.77
	c0.11-0.22,0.26-0.4,0.45-0.55c0.19-0.14,0.42-0.25,0.69-0.32c0.27-0.07,0.55-0.11,0.86-0.11c0.32,0,0.6,0.02,0.82,0.06
	c0.23,0.04,0.44,0.09,0.65,0.16v-0.1c0-0.37-0.11-0.65-0.34-0.85c-0.23-0.2-0.55-0.29-0.98-0.29c-0.3,0-0.57,0.03-0.81,0.09
	c-0.24,0.06-0.48,0.14-0.72,0.24l-0.33-0.98c0.3-0.13,0.6-0.24,0.91-0.32c0.31-0.08,0.68-0.12,1.12-0.12c0.8,0,1.38,0.2,1.77,0.59
	s0.58,0.95,0.58,1.66v3.16H380.25z M380.28,649.11c-0.15-0.06-0.34-0.11-0.55-0.15c-0.21-0.04-0.44-0.06-0.67-0.06
	c-0.38,0-0.68,0.07-0.9,0.22c-0.22,0.15-0.32,0.35-0.32,0.61v0.02c0,0.26,0.1,0.45,0.3,0.59s0.44,0.2,0.73,0.2
	c0.2,0,0.39-0.03,0.56-0.08c0.17-0.05,0.32-0.13,0.45-0.23c0.13-0.1,0.23-0.22,0.3-0.35c0.07-0.14,0.11-0.29,0.11-0.46V649.11z"/>
<path d="M387.83,645.42h-2.24v-1.15h5.74v1.15h-2.24v5.92h-1.25V645.42z"/>
<path d="M394.94,651.47c-0.38,0-0.74-0.07-1.08-0.2c-0.33-0.13-0.62-0.32-0.87-0.57c-0.25-0.24-0.44-0.53-0.58-0.87
	c-0.14-0.34-0.21-0.72-0.21-1.13v-0.02c0-0.38,0.06-0.74,0.19-1.08c0.13-0.34,0.31-0.63,0.54-0.88c0.23-0.25,0.51-0.45,0.82-0.6
	c0.32-0.15,0.67-0.22,1.05-0.22c0.42,0,0.8,0.08,1.12,0.23c0.32,0.16,0.59,0.36,0.8,0.63c0.21,0.26,0.37,0.57,0.48,0.91
	s0.16,0.71,0.16,1.1c0,0.05,0,0.11,0,0.17c0,0.06-0.01,0.12-0.01,0.18h-3.92c0.07,0.44,0.24,0.77,0.52,1.01s0.62,0.35,1.02,0.35
	c0.3,0,0.57-0.05,0.79-0.16c0.22-0.11,0.44-0.27,0.66-0.48l0.72,0.64c-0.26,0.3-0.56,0.55-0.91,0.73
	C395.86,651.38,395.43,651.47,394.94,651.47z M396.16,648.3c-0.02-0.2-0.06-0.38-0.13-0.55c-0.07-0.17-0.16-0.32-0.27-0.44
	c-0.11-0.12-0.25-0.22-0.41-0.3c-0.16-0.07-0.34-0.11-0.54-0.11c-0.38,0-0.69,0.13-0.94,0.39c-0.25,0.26-0.4,0.6-0.45,1.02H396.16z"
	/>
<path d="M398.67,643.97h1.23v7.38h-1.23V643.97z"/>
<path d="M401.41,649.96h1.34v1.38h-1.34V649.96z"/>
<path d="M409.62,651.47c-0.62,0-1.15-0.12-1.59-0.35c-0.44-0.23-0.81-0.53-1.12-0.89l0.87-0.81c0.26,0.3,0.53,0.53,0.82,0.69
	c0.29,0.16,0.64,0.24,1.04,0.24c0.35,0,0.64-0.1,0.87-0.29c0.23-0.2,0.35-0.46,0.35-0.78v-0.02c0-0.35-0.15-0.62-0.44-0.81
	c-0.29-0.19-0.69-0.28-1.19-0.28h-0.58l-0.2-0.78l1.91-2.03h-3.06v-1.08h4.68v0.93l-1.97,2.02c0.27,0.03,0.53,0.1,0.78,0.19
	c0.25,0.09,0.47,0.21,0.66,0.37c0.19,0.15,0.35,0.35,0.47,0.59c0.12,0.24,0.18,0.52,0.18,0.85v0.02c0,0.32-0.06,0.62-0.18,0.9
	s-0.29,0.51-0.51,0.71c-0.22,0.2-0.48,0.35-0.78,0.46C410.32,651.41,409.98,651.47,409.62,651.47z"/>
<path d="M416.89,649.76h-3.57l-0.23-0.89l3.93-4.65h1.06v4.52h1.01v1.02h-1.01v1.59h-1.19V649.76z M416.89,648.74v-2.8l-2.32,2.8
	H416.89z"/>
<path d="M423.25,651.47c-0.46,0-0.89-0.09-1.26-0.28c-0.38-0.19-0.7-0.45-0.97-0.78c-0.27-0.33-0.48-0.72-0.62-1.16
	s-0.22-0.91-0.22-1.42v-0.02c0-0.51,0.07-0.98,0.22-1.43c0.15-0.44,0.36-0.83,0.63-1.16c0.27-0.33,0.59-0.59,0.97-0.78
	c0.38-0.19,0.8-0.29,1.27-0.29s0.89,0.09,1.26,0.28c0.38,0.19,0.7,0.45,0.97,0.78c0.27,0.33,0.47,0.72,0.62,1.16
	c0.15,0.44,0.22,0.91,0.22,1.42v0.02c0,0.51-0.07,0.98-0.22,1.43c-0.15,0.44-0.36,0.83-0.63,1.16c-0.27,0.33-0.59,0.59-0.97,0.78
	C424.14,651.37,423.72,651.47,423.25,651.47z M423.27,650.35c0.28,0,0.52-0.07,0.74-0.2c0.22-0.13,0.41-0.31,0.56-0.54
	c0.16-0.23,0.28-0.49,0.36-0.8c0.08-0.31,0.13-0.64,0.13-0.99v-0.02c0-0.35-0.04-0.68-0.13-0.99c-0.09-0.31-0.21-0.57-0.36-0.8
	c-0.16-0.23-0.35-0.41-0.57-0.55c-0.23-0.14-0.47-0.2-0.74-0.2c-0.28,0-0.52,0.07-0.74,0.2c-0.22,0.13-0.41,0.31-0.56,0.54
	c-0.16,0.23-0.28,0.49-0.36,0.8c-0.08,0.31-0.13,0.64-0.13,0.99v0.02c0,0.35,0.04,0.68,0.13,0.99c0.08,0.31,0.21,0.57,0.36,0.8
	c0.16,0.23,0.35,0.41,0.57,0.55C422.75,650.28,423,650.35,423.27,650.35z"/>
<path d="M433.6,651.47c-0.46,0-0.89-0.09-1.26-0.28c-0.38-0.19-0.7-0.45-0.97-0.78c-0.27-0.33-0.48-0.72-0.62-1.16
	s-0.22-0.91-0.22-1.42v-0.02c0-0.51,0.07-0.98,0.22-1.43c0.15-0.44,0.36-0.83,0.63-1.16c0.27-0.33,0.59-0.59,0.97-0.78
	c0.38-0.19,0.8-0.29,1.27-0.29c0.46,0,0.89,0.09,1.26,0.28c0.38,0.19,0.7,0.45,0.97,0.78c0.27,0.33,0.47,0.72,0.62,1.16
	c0.15,0.44,0.22,0.91,0.22,1.42v0.02c0,0.51-0.07,0.98-0.22,1.43c-0.15,0.44-0.36,0.83-0.63,1.16c-0.27,0.33-0.59,0.59-0.97,0.78
	C434.49,651.37,434.07,651.47,433.6,651.47z M433.62,650.35c0.28,0,0.52-0.07,0.74-0.2c0.22-0.13,0.41-0.31,0.56-0.54
	s0.28-0.49,0.36-0.8c0.08-0.31,0.13-0.64,0.13-0.99v-0.02c0-0.35-0.04-0.68-0.13-0.99c-0.09-0.31-0.21-0.57-0.36-0.8
	c-0.16-0.23-0.35-0.41-0.57-0.55c-0.23-0.14-0.47-0.2-0.74-0.2c-0.28,0-0.52,0.07-0.74,0.2c-0.22,0.13-0.41,0.31-0.56,0.54
	c-0.16,0.23-0.27,0.49-0.36,0.8c-0.08,0.31-0.13,0.64-0.13,0.99v0.02c0,0.35,0.04,0.68,0.13,0.99c0.08,0.31,0.21,0.57,0.36,0.8
	c0.16,0.23,0.35,0.41,0.57,0.55C433.1,650.28,433.35,650.35,433.62,650.35z"/>
<path d="M440.68,651.47c-0.44,0-0.82-0.06-1.14-0.19c-0.32-0.13-0.6-0.31-0.83-0.55c-0.13-0.13-0.25-0.28-0.36-0.45
	c-0.1-0.17-0.19-0.36-0.27-0.57c-0.07-0.22-0.13-0.46-0.17-0.74c-0.04-0.28-0.06-0.59-0.06-0.95V648c0-0.54,0.06-1.04,0.19-1.51
	c0.13-0.47,0.32-0.88,0.57-1.22s0.57-0.62,0.95-0.82c0.38-0.2,0.82-0.3,1.32-0.3c0.46,0,0.86,0.07,1.19,0.21
	c0.34,0.14,0.66,0.33,0.97,0.58l-0.67,0.96c-0.25-0.2-0.49-0.35-0.72-0.46c-0.23-0.11-0.5-0.16-0.81-0.16c-0.26,0-0.5,0.06-0.7,0.17
	c-0.21,0.11-0.38,0.27-0.52,0.47c-0.14,0.2-0.25,0.44-0.33,0.72c-0.08,0.27-0.13,0.57-0.14,0.9c0.09-0.09,0.2-0.17,0.3-0.26
	c0.11-0.09,0.23-0.16,0.37-0.23c0.14-0.06,0.29-0.12,0.46-0.16c0.16-0.04,0.35-0.06,0.56-0.06c0.34,0,0.67,0.05,0.97,0.15
	c0.3,0.1,0.56,0.24,0.79,0.43c0.23,0.19,0.4,0.43,0.53,0.7c0.13,0.28,0.19,0.59,0.19,0.94v0.02c0,0.35-0.07,0.67-0.2,0.97
	c-0.14,0.3-0.32,0.55-0.56,0.76c-0.24,0.21-0.51,0.38-0.83,0.5S441.05,651.47,440.68,651.47z M440.65,650.4
	c0.22,0,0.42-0.03,0.6-0.1c0.18-0.06,0.32-0.15,0.45-0.27s0.22-0.25,0.28-0.41c0.06-0.16,0.1-0.32,0.1-0.51v-0.02
	c0-0.36-0.13-0.65-0.39-0.88c-0.26-0.23-0.61-0.35-1.06-0.35c-0.22,0-0.42,0.03-0.6,0.1c-0.18,0.07-0.33,0.16-0.45,0.27
	c-0.13,0.11-0.22,0.24-0.29,0.39c-0.07,0.15-0.1,0.31-0.1,0.48v0.02c0,0.18,0.04,0.35,0.11,0.51c0.07,0.16,0.17,0.29,0.29,0.4
	c0.13,0.11,0.28,0.2,0.46,0.27C440.23,650.36,440.43,650.4,440.65,650.4z"/>
<path d="M446.92,651.47c-0.49,0-0.92-0.08-1.27-0.24c-0.36-0.16-0.69-0.36-0.99-0.61l0.68-0.95c0.27,0.23,0.53,0.4,0.78,0.51
	c0.25,0.11,0.53,0.16,0.83,0.16c0.26,0,0.5-0.05,0.7-0.16c0.21-0.11,0.38-0.26,0.53-0.46c0.15-0.2,0.26-0.44,0.34-0.71
	c0.08-0.27,0.13-0.57,0.14-0.9c-0.17,0.22-0.4,0.39-0.67,0.54c-0.27,0.14-0.6,0.21-0.99,0.21c-0.38,0-0.72-0.05-1.03-0.16
	c-0.31-0.1-0.57-0.25-0.79-0.45c-0.22-0.2-0.39-0.43-0.51-0.71c-0.12-0.28-0.18-0.59-0.18-0.93v-0.02c0-0.34,0.06-0.67,0.19-0.97
	c0.13-0.3,0.31-0.56,0.54-0.78c0.23-0.22,0.51-0.39,0.83-0.52c0.32-0.12,0.68-0.19,1.07-0.19c0.44,0,0.82,0.06,1.13,0.19
	c0.31,0.12,0.58,0.31,0.83,0.56c0.26,0.26,0.47,0.6,0.63,1.03c0.15,0.42,0.23,0.98,0.23,1.67v0.02c0,0.57-0.07,1.09-0.21,1.56
	c-0.14,0.47-0.34,0.88-0.6,1.22c-0.26,0.34-0.58,0.6-0.96,0.79S447.4,651.47,446.92,651.47z M447.18,647.82
	c0.22,0,0.42-0.03,0.6-0.1c0.18-0.07,0.33-0.16,0.46-0.28c0.13-0.12,0.22-0.25,0.28-0.4c0.06-0.15,0.1-0.31,0.1-0.49v-0.02
	c0-0.37-0.13-0.68-0.4-0.93c-0.27-0.25-0.63-0.37-1.08-0.37c-0.22,0-0.42,0.03-0.59,0.1c-0.17,0.07-0.32,0.16-0.44,0.28
	c-0.12,0.12-0.22,0.26-0.28,0.42c-0.06,0.16-0.1,0.33-0.1,0.51v0.02c0,0.37,0.13,0.67,0.39,0.91
	C446.38,647.7,446.74,647.82,447.18,647.82z"/>
<path d="M454.7,649.76h-3.57l-0.23-0.89l3.93-4.65h1.06v4.52h1.01v1.02h-1.01v1.59h-1.19V649.76z M454.7,648.74v-2.8l-2.32,2.8
	H454.7z"/>
<path d="M461.07,651.47c-0.46,0-0.89-0.09-1.26-0.28c-0.38-0.19-0.7-0.45-0.97-0.78c-0.27-0.33-0.48-0.72-0.62-1.16
	s-0.22-0.91-0.22-1.42v-0.02c0-0.51,0.07-0.98,0.22-1.43c0.15-0.44,0.36-0.83,0.63-1.16c0.27-0.33,0.59-0.59,0.97-0.78
	c0.38-0.19,0.8-0.29,1.27-0.29s0.89,0.09,1.26,0.28c0.38,0.19,0.7,0.45,0.97,0.78c0.27,0.33,0.47,0.72,0.62,1.16
	c0.15,0.44,0.22,0.91,0.22,1.42v0.02c0,0.51-0.07,0.98-0.22,1.43c-0.15,0.44-0.36,0.83-0.63,1.16c-0.27,0.33-0.59,0.59-0.97,0.78
	C461.95,651.37,461.53,651.47,461.07,651.47z M461.08,650.35c0.28,0,0.52-0.07,0.74-0.2c0.22-0.13,0.41-0.31,0.56-0.54
	c0.16-0.23,0.27-0.49,0.36-0.8c0.08-0.31,0.13-0.64,0.13-0.99v-0.02c0-0.35-0.04-0.68-0.13-0.99c-0.09-0.31-0.21-0.57-0.36-0.8
	c-0.16-0.23-0.35-0.41-0.57-0.55c-0.23-0.14-0.47-0.2-0.74-0.2c-0.28,0-0.52,0.07-0.74,0.2c-0.22,0.13-0.41,0.31-0.56,0.54
	c-0.16,0.23-0.28,0.49-0.36,0.8c-0.08,0.31-0.13,0.64-0.13,0.99v0.02c0,0.35,0.04,0.68,0.13,0.99c0.08,0.31,0.21,0.57,0.36,0.8
	c0.16,0.23,0.35,0.41,0.57,0.55C460.56,650.28,460.81,650.35,461.08,650.35z"/>
<path d="M466.53,645.48l-1.27,0.35l-0.26-1.01l1.9-0.61h0.87v7.13h-1.23V645.48z"/>
<path d="M471.92,651.45c-0.38,0-0.74-0.05-1.07-0.15c-0.33-0.1-0.62-0.23-0.86-0.41c-0.24-0.18-0.43-0.39-0.57-0.64
	s-0.2-0.52-0.2-0.83v-0.02c0-0.43,0.11-0.78,0.33-1.06c0.22-0.28,0.54-0.5,0.94-0.67c-0.3-0.16-0.55-0.36-0.74-0.61
	c-0.19-0.25-0.29-0.57-0.29-0.97v-0.02c0-0.27,0.06-0.52,0.19-0.75c0.12-0.23,0.29-0.44,0.51-0.61c0.22-0.17,0.47-0.31,0.77-0.41
	c0.3-0.1,0.63-0.15,0.99-0.15c0.35,0,0.68,0.05,0.98,0.15c0.3,0.1,0.56,0.23,0.78,0.4c0.22,0.17,0.39,0.37,0.51,0.61
	c0.13,0.24,0.19,0.49,0.19,0.76v0.02c0,0.4-0.1,0.72-0.29,0.97c-0.19,0.25-0.44,0.45-0.74,0.61c0.38,0.17,0.69,0.4,0.93,0.66
	c0.23,0.27,0.35,0.61,0.35,1.03v0.02c0,0.32-0.07,0.6-0.2,0.85c-0.13,0.25-0.32,0.47-0.57,0.65c-0.24,0.18-0.53,0.31-0.86,0.41
	C472.66,651.4,472.3,651.45,471.92,651.45z M471.92,650.41c0.46,0,0.83-0.1,1.09-0.31c0.26-0.21,0.39-0.46,0.39-0.75v-0.02
	c0-0.16-0.04-0.31-0.12-0.44c-0.08-0.13-0.18-0.24-0.31-0.34c-0.13-0.09-0.29-0.17-0.47-0.22c-0.18-0.05-0.38-0.08-0.59-0.08
	c-0.21,0-0.41,0.03-0.59,0.08c-0.18,0.05-0.34,0.12-0.47,0.22c-0.13,0.09-0.24,0.21-0.31,0.34c-0.08,0.13-0.12,0.28-0.12,0.44v0.02
	c0,0.29,0.13,0.54,0.39,0.75C471.09,650.3,471.46,650.41,471.92,650.41z M471.92,647.27c0.36,0,0.67-0.1,0.9-0.29
	c0.24-0.2,0.36-0.45,0.36-0.75v-0.02c0-0.28-0.11-0.51-0.34-0.71c-0.23-0.19-0.54-0.29-0.92-0.29c-0.38,0-0.69,0.1-0.92,0.29
	c-0.23,0.19-0.34,0.42-0.34,0.7v0.02c0,0.31,0.12,0.57,0.36,0.76C471.25,647.17,471.56,647.27,471.92,647.27z"/>
<path d="M297.74,658.43h0.78v1.05c0.42-0.63,1.04-1.16,2-1.16c1.25,0,2.5,0.99,2.5,2.71v0.02c0,1.71-1.23,2.72-2.5,2.72
	c-0.97,0-1.6-0.53-2-1.11v2.62h-0.78V658.43z M302.22,661.06v-0.02c0-1.23-0.85-2.02-1.84-2.02c-0.97,0-1.89,0.82-1.89,2.01v0.02
	c0,1.21,0.92,2.02,1.89,2.02C301.39,663.07,302.22,662.33,302.22,661.06z"/>
<path d="M304.56,658.43h0.78v1.37c0.38-0.87,1.14-1.5,2.13-1.46v0.84h-0.06c-1.14,0-2.07,0.82-2.07,2.4v2.08h-0.78V658.43z"/>
<path d="M308.22,661.06v-0.02c0-1.51,1.06-2.72,2.51-2.72c1.55,0,2.44,1.23,2.44,2.76c0,0.1,0,0.16-0.01,0.25h-4.15
	c0.11,1.13,0.91,1.77,1.84,1.77c0.72,0,1.22-0.29,1.65-0.74l0.49,0.43c-0.53,0.59-1.16,0.98-2.15,0.98
	C309.4,663.78,308.22,662.68,308.22,661.06z M312.38,660.76c-0.08-0.95-0.63-1.78-1.67-1.78c-0.91,0-1.6,0.76-1.7,1.78H312.38z"/>
<path d="M313.87,658.43h0.86l1.76,4.34l1.77-4.34h0.84l-2.28,5.27h-0.69L313.87,658.43z"/>
<path d="M319.81,661.06v-0.02c0-1.51,1.06-2.72,2.51-2.72c1.55,0,2.44,1.23,2.44,2.76c0,0.1,0,0.16-0.01,0.25h-4.15
	c0.11,1.13,0.91,1.77,1.84,1.77c0.72,0,1.22-0.29,1.65-0.74l0.49,0.43c-0.53,0.59-1.16,0.98-2.15,0.98
	C320.98,663.78,319.81,662.68,319.81,661.06z M323.96,660.76c-0.08-0.95-0.63-1.78-1.67-1.78c-0.91,0-1.6,0.76-1.7,1.78H323.96z"/>
<path d="M326.22,658.43H327v0.91c0.34-0.57,0.89-1.02,1.79-1.02c1.26,0,2,0.85,2,2.09v3.25h-0.78v-3.05c0-0.97-0.53-1.58-1.45-1.58
	c-0.9,0-1.57,0.66-1.57,1.64v2.99h-0.78V658.43z"/>
<path d="M332.83,662.27v-3.16h-0.73v-0.69h0.73v-1.58h0.78v1.58h1.66v0.69h-1.66v3.05c0,0.64,0.35,0.87,0.88,0.87
	c0.26,0,0.49-0.05,0.76-0.18v0.67c-0.27,0.14-0.57,0.22-0.94,0.22C333.47,663.75,332.83,663.34,332.83,662.27z"/>
<path d="M336.78,656.43h0.89v0.86h-0.89V656.43z M336.83,658.43h0.78v5.23h-0.78V658.43z"/>
<path d="M339.01,658.43h0.86l1.76,4.34l1.77-4.34h0.84l-2.28,5.27h-0.69L339.01,658.43z"/>
<path d="M345.59,656.43h0.89v0.86h-0.89V656.43z M345.64,658.43h0.78v5.23h-0.78V658.43z"/>
<path d="M348,660.89c0-2.42,1.95-4.43,4.43-4.43c2.48,0,4.41,1.89,4.41,4.01c0,1.72-0.96,2.48-1.89,2.48
	c-0.74,0-1.22-0.34-1.42-0.85c-0.39,0.47-0.91,0.85-1.67,0.85c-0.99,0-1.81-0.73-1.81-1.84c0-1.44,1.19-2.52,2.34-2.52
	c0.79,0,1.23,0.41,1.48,0.84l0.13-0.7l0.68,0.09l-0.4,2.3c-0.05,0.28-0.07,0.51-0.07,0.62c0,0.52,0.31,0.82,0.86,0.82
	c0.72,0,1.42-0.65,1.42-2.08c0-1.86-1.73-3.66-4.05-3.66c-2.33,0-4.07,1.84-4.07,4.09c0,2.26,1.72,4.07,4.15,4.07
	c1.01,0,1.74-0.23,2.52-0.69l0.16,0.27c-0.78,0.48-1.63,0.76-2.68,0.76C349.93,665.3,348,663.31,348,660.89z M353.11,661.83
	c0.34-0.34,0.57-0.83,0.57-1.34c0-0.74-0.53-1.28-1.23-1.28c-0.41,0-0.8,0.18-1.11,0.5c-0.32,0.33-0.55,0.81-0.55,1.35
	c0,0.8,0.52,1.26,1.23,1.26C352.42,662.32,352.82,662.12,353.11,661.83z"/>
<path d="M358.29,664.57l0.35-0.61c0.6,0.43,1.26,0.67,2.01,0.67c1.15,0,1.9-0.64,1.9-1.86v-0.62c-0.46,0.61-1.09,1.1-2.05,1.1
	c-1.25,0-2.46-0.94-2.46-2.45v-0.02c0-1.53,1.21-2.47,2.46-2.47c0.98,0,1.62,0.49,2.04,1.05v-0.94h0.78v4.32
	c0,0.81-0.24,1.43-0.67,1.85c-0.47,0.47-1.16,0.7-1.99,0.7C359.8,665.3,358.99,665.06,358.29,664.57z M362.58,660.8v-0.02
	c0-1.07-0.93-1.77-1.92-1.77s-1.81,0.69-1.81,1.76v0.02c0,1.05,0.84,1.78,1.81,1.78C361.65,662.57,362.58,661.85,362.58,660.8z"/>
<path d="M365.18,658.43h0.78v1.37c0.38-0.87,1.14-1.5,2.13-1.46v0.84h-0.06c-1.14,0-2.07,0.82-2.07,2.4v2.08h-0.78V658.43z"/>
<path d="M368.73,662.14v-0.02c0-1.1,0.91-1.69,2.24-1.69c0.67,0,1.14,0.09,1.61,0.22v-0.18c0-0.94-0.58-1.43-1.56-1.43
	c-0.62,0-1.1,0.16-1.59,0.38l-0.23-0.64c0.58-0.26,1.14-0.43,1.9-0.43c0.74,0,1.3,0.19,1.69,0.58c0.35,0.35,0.54,0.86,0.54,1.53v3.2
	h-0.75v-0.79c-0.36,0.48-0.97,0.9-1.89,0.9C369.72,663.77,368.73,663.22,368.73,662.14z M372.59,661.74v-0.51
	c-0.38-0.11-0.9-0.22-1.54-0.22c-0.98,0-1.53,0.42-1.53,1.08v0.02c0,0.66,0.61,1.04,1.31,1.04
	C371.8,663.15,372.59,662.57,372.59,661.74z"/>
<path d="M375.39,659.12h-0.72v-0.68h0.72v-0.46c0-0.6,0.16-1.05,0.46-1.35c0.26-0.26,0.65-0.4,1.12-0.4c0.36,0,0.61,0.04,0.86,0.13
	v0.68c-0.28-0.08-0.5-0.13-0.76-0.13c-0.61,0-0.91,0.36-0.91,1.11v0.42h1.66v0.67h-1.65v4.54h-0.78V659.12z M378.82,656.43h0.89
	v0.86h-0.89V656.43z M378.89,658.43h0.77v5.23h-0.77V658.43z"/>
<path d="M381.26,661.07v-0.02c0-1.48,1.15-2.73,2.68-2.73c0.99,0,1.61,0.41,2.09,0.93l-0.52,0.55c-0.41-0.43-0.88-0.79-1.59-0.79
	c-1.06,0-1.87,0.9-1.87,2.02v0.02c0,1.13,0.83,2.03,1.92,2.03c0.67,0,1.18-0.33,1.6-0.78l0.5,0.47c-0.53,0.59-1.15,1.01-2.13,1.01
	C382.41,663.78,381.26,662.54,381.26,661.07z"/>
<path d="M387.07,662.14v-0.02c0-1.1,0.91-1.69,2.24-1.69c0.67,0,1.14,0.09,1.61,0.22v-0.18c0-0.94-0.58-1.43-1.56-1.43
	c-0.62,0-1.1,0.16-1.59,0.38l-0.23-0.64c0.58-0.26,1.14-0.43,1.9-0.43c0.74,0,1.3,0.19,1.69,0.58c0.35,0.35,0.54,0.86,0.54,1.53v3.2
	h-0.75v-0.79c-0.36,0.48-0.97,0.9-1.89,0.9C388.05,663.77,387.07,663.22,387.07,662.14z M390.92,661.74v-0.51
	c-0.38-0.11-0.9-0.22-1.54-0.22c-0.98,0-1.53,0.42-1.53,1.08v0.02c0,0.66,0.61,1.04,1.31,1.04
	C390.13,663.15,390.92,662.57,390.92,661.74z"/>
<path d="M393.1,661.06v-0.02c0-1.51,1.06-2.72,2.51-2.72c1.55,0,2.44,1.23,2.44,2.76c0,0.1,0,0.16-0.01,0.25h-4.15
	c0.11,1.13,0.91,1.77,1.84,1.77c0.72,0,1.22-0.29,1.65-0.74l0.49,0.43c-0.53,0.59-1.16,0.98-2.16,0.98
	C394.28,663.78,393.1,662.68,393.1,661.06z M397.26,660.76c-0.08-0.95-0.63-1.78-1.67-1.78c-0.91,0-1.6,0.76-1.7,1.78H397.26z"/>
<path d="M399.09,662.99l0.39-0.56c0.57,0.43,1.19,0.67,1.81,0.67c0.63,0,1.08-0.32,1.08-0.83v-0.02c0-0.53-0.62-0.73-1.3-0.92
	c-0.82-0.23-1.73-0.52-1.73-1.48v-0.02c0-0.9,0.75-1.5,1.78-1.5c0.64,0,1.35,0.22,1.88,0.58l-0.35,0.59
	c-0.49-0.31-1.04-0.51-1.55-0.51c-0.62,0-1.01,0.32-1.01,0.76v0.02c0,0.5,0.65,0.69,1.35,0.9c0.81,0.24,1.68,0.56,1.68,1.5v0.02
	c0,0.99-0.82,1.57-1.86,1.57C400.5,663.76,399.67,663.47,399.09,662.99z"/>
<path d="M404.67,658.43h0.78v1.05c0.43-0.63,1.04-1.16,2-1.16c1.25,0,2.5,0.99,2.5,2.71v0.02c0,1.71-1.23,2.72-2.5,2.72
	c-0.97,0-1.6-0.53-2-1.11v2.62h-0.78V658.43z M409.15,661.06v-0.02c0-1.23-0.85-2.02-1.84-2.02c-0.97,0-1.89,0.82-1.89,2.01v0.02
	c0,1.21,0.92,2.02,1.89,2.02C408.32,663.07,409.15,662.33,409.15,661.06z"/>
<path d="M411.49,658.43h0.78v1.37c0.38-0.87,1.14-1.5,2.13-1.46v0.84h-0.06c-1.14,0-2.07,0.82-2.07,2.4v2.08h-0.78V658.43z"/>
<path d="M415.15,661.06v-0.02c0-1.51,1.06-2.72,2.51-2.72c1.55,0,2.44,1.23,2.44,2.76c0,0.1,0,0.16-0.01,0.25h-4.15
	c0.11,1.13,0.91,1.77,1.84,1.77c0.72,0,1.22-0.29,1.65-0.74l0.49,0.43c-0.53,0.59-1.16,0.98-2.15,0.98
	C416.32,663.78,415.15,662.68,415.15,661.06z M419.3,660.76c-0.08-0.95-0.63-1.78-1.67-1.78c-0.91,0-1.6,0.76-1.7,1.78H419.3z"/>
<path d="M421.13,662.99l0.39-0.56c0.57,0.43,1.19,0.67,1.81,0.67c0.63,0,1.08-0.32,1.08-0.83v-0.02c0-0.53-0.62-0.73-1.3-0.92
	c-0.82-0.23-1.73-0.52-1.73-1.48v-0.02c0-0.9,0.75-1.5,1.78-1.5c0.64,0,1.35,0.22,1.88,0.58l-0.35,0.59
	c-0.49-0.31-1.04-0.51-1.55-0.51c-0.62,0-1.01,0.32-1.01,0.76v0.02c0,0.5,0.65,0.69,1.35,0.9c0.81,0.24,1.68,0.56,1.68,1.5v0.02
	c0,0.99-0.82,1.57-1.86,1.57C422.55,663.76,421.72,663.47,421.13,662.99z"/>
<path d="M426.17,662.99l0.39-0.56c0.57,0.43,1.19,0.67,1.81,0.67c0.63,0,1.08-0.32,1.08-0.83v-0.02c0-0.53-0.62-0.73-1.3-0.92
	c-0.82-0.23-1.73-0.52-1.73-1.48v-0.02c0-0.9,0.75-1.5,1.78-1.5c0.64,0,1.35,0.22,1.88,0.58l-0.35,0.59
	c-0.49-0.31-1.04-0.51-1.55-0.51c-0.62,0-1.01,0.32-1.01,0.76v0.02c0,0.5,0.65,0.69,1.35,0.9c0.81,0.24,1.68,0.56,1.68,1.5v0.02
	c0,0.99-0.82,1.57-1.86,1.57C427.59,663.76,426.76,663.47,426.17,662.99z"/>
<path d="M431.77,656.43h0.89v0.86h-0.89V656.43z M431.83,658.43h0.78v5.23h-0.78V658.43z"/>
<path d="M434.2,661.07v-0.02c0-1.48,1.15-2.73,2.73-2.73c1.57,0,2.72,1.23,2.72,2.71v0.02c0,1.48-1.16,2.73-2.74,2.73
	C435.34,663.78,434.2,662.55,434.2,661.07z M438.85,661.07v-0.02c0-1.12-0.84-2.04-1.94-2.04c-1.13,0-1.91,0.92-1.91,2.02v0.02
	c0,1.12,0.83,2.03,1.93,2.03C438.06,663.08,438.85,662.17,438.85,661.07z"/>
<path d="M441.16,658.43h0.78v0.91c0.34-0.57,0.89-1.02,1.79-1.02c1.26,0,2,0.85,2,2.09v3.25h-0.78v-3.05c0-0.97-0.53-1.58-1.45-1.58
	c-0.9,0-1.57,0.66-1.57,1.64v2.99h-0.78V658.43z"/>
<path d="M447.18,661.06v-0.02c0-1.51,1.06-2.72,2.51-2.72c1.55,0,2.44,1.23,2.44,2.76c0,0.1,0,0.16-0.01,0.25h-4.15
	c0.11,1.13,0.91,1.77,1.84,1.77c0.72,0,1.22-0.29,1.65-0.74l0.49,0.43c-0.53,0.59-1.16,0.98-2.16,0.98
	C448.35,663.78,447.18,662.68,447.18,661.06z M451.33,660.76c-0.08-0.95-0.63-1.78-1.67-1.78c-0.91,0-1.6,0.76-1.7,1.78H451.33z"/>
<path d="M453.39,662.6h0.93v1.06h-0.93V662.6z"/>
<path d="M456.09,656.43h0.89v0.86h-0.89V656.43z M456.14,658.43h0.78v5.23h-0.78V658.43z"/>
<path d="M459.11,662.27v-3.16h-0.73v-0.69h0.73v-1.58h0.78v1.58h1.66v0.69h-1.66v3.05c0,0.64,0.35,0.87,0.88,0.87
	c0.26,0,0.49-0.05,0.76-0.18v0.67c-0.27,0.14-0.57,0.22-0.94,0.22C459.75,663.75,459.11,663.34,459.11,662.27z"/>
<path d="M466.51,655.59h0.66v9.37h-0.66V655.59z"/>
<g>
	<path d="M21.19,448.09l2.42-4.15c4.09,2.98,8.66,4.57,13.78,4.57c7.9,0,13.02-4.36,13.02-12.74v-4.22
		c-3.12,4.15-7.48,7.55-14.06,7.55c-8.59,0-16.83-6.44-16.83-16.76v-0.14c0-10.46,8.31-16.9,16.83-16.9c6.72,0,11.08,3.32,13.99,7.2
		v-6.44h5.34v29.57c0,5.54-1.67,9.76-4.57,12.67c-3.18,3.19-7.96,4.78-13.64,4.78C31.51,453.08,25.97,451.41,21.19,448.09z
		 M50.56,422.26v-0.14c0-7.34-6.37-12.12-13.16-12.12C30.61,410,25,414.71,25,422.05v0.14c0,7.21,5.75,12.19,12.39,12.19
		C44.18,434.38,50.56,429.46,50.56,422.26z"/>
	<path d="M68.32,406.05h5.33v9.35c2.63-5.95,7.83-10.25,14.62-9.97v5.75h-0.42c-7.83,0-14.2,5.61-14.2,16.41v14.27h-5.33V406.05z"/>
	<path d="M92.67,431.47v-0.14c0-7.55,6.23-11.56,15.31-11.56c4.57,0,7.83,0.62,11.01,1.52v-1.25c0-6.44-3.95-9.76-10.66-9.76
		c-4.23,0-7.55,1.11-10.88,2.63l-1.59-4.36c3.95-1.8,7.82-2.98,13.01-2.98c5.06,0,8.93,1.32,11.57,3.95
		c2.42,2.42,3.67,5.89,3.67,10.46v21.89h-5.12v-5.4c-2.49,3.26-6.65,6.16-12.95,6.16C99.39,442.62,92.67,438.81,92.67,431.47z
		 M119.06,428.7v-3.46c-2.63-0.76-6.17-1.52-10.53-1.52c-6.72,0-10.45,2.91-10.45,7.41v0.14c0,4.5,4.15,7.14,9,7.14
		C113.66,438.4,119.06,434.38,119.06,428.7z"/>
	<path d="M138.21,410.76h-4.91v-4.64h4.91v-3.12c0-4.09,1.11-7.2,3.12-9.21c1.8-1.8,4.43-2.77,7.69-2.77c2.49,0,4.16,0.28,5.89,0.9
		v4.64c-1.93-0.55-3.39-0.9-5.19-0.9c-4.15,0-6.23,2.49-6.23,7.62v2.91h11.36v4.57h-11.29v31.1h-5.34V410.76z M161.76,392.34h6.09
		v5.89h-6.09V392.34z M162.18,406.05h5.26v35.8h-5.26V406.05z"/>
	<path d="M178.42,424.13v-0.14c0-10.11,7.89-18.7,18.35-18.7c6.79,0,11.01,2.84,14.33,6.37l-3.53,3.74
		c-2.84-2.98-6.03-5.4-10.88-5.4c-7.27,0-12.81,6.16-12.81,13.85v0.14c0,7.76,5.68,13.92,13.16,13.92c4.57,0,8.11-2.28,10.95-5.33
		l3.39,3.19c-3.61,4.02-7.9,6.93-14.62,6.93C186.31,442.69,178.42,434.17,178.42,424.13z"/>
	<path d="M218.21,431.47v-0.14c0-7.55,6.23-11.56,15.31-11.56c4.57,0,7.83,0.62,11.01,1.52v-1.25c0-6.44-3.95-9.76-10.66-9.76
		c-4.23,0-7.55,1.11-10.88,2.63l-1.59-4.36c3.95-1.8,7.82-2.98,13.01-2.98c5.06,0,8.93,1.32,11.57,3.95
		c2.42,2.42,3.67,5.89,3.67,10.46v21.89h-5.12v-5.4c-2.49,3.26-6.65,6.16-12.95,6.16C224.93,442.62,218.21,438.81,218.21,431.47z
		 M244.6,428.7v-3.46c-2.63-0.76-6.17-1.52-10.53-1.52c-6.72,0-10.45,2.91-10.45,7.41v0.14c0,4.5,4.15,7.14,9,7.14
		C239.19,438.4,244.6,434.38,244.6,428.7z"/>
	<path d="M259.53,424.06v-0.14c0-10.32,7.27-18.63,17.17-18.63c10.6,0,16.69,8.45,16.69,18.91c0,0.69,0,1.11-0.07,1.73h-28.39
		c0.76,7.76,6.23,12.12,12.6,12.12c4.92,0,8.38-2.01,11.29-5.06l3.32,2.98c-3.61,4.02-7.97,6.72-14.76,6.72
		C267.56,442.69,259.53,435.14,259.53,424.06z M287.99,421.98c-0.56-6.51-4.3-12.19-11.43-12.19c-6.23,0-10.95,5.19-11.64,12.19
		H287.99z"/>
	<path d="M300.5,437.29l2.7-3.81c3.87,2.91,8.17,4.57,12.39,4.57c4.29,0,7.41-2.22,7.41-5.68v-0.14c0-3.6-4.23-4.99-8.93-6.3
		c-5.61-1.59-11.84-3.53-11.84-10.11v-0.14c0-6.16,5.12-10.25,12.19-10.25c4.36,0,9.21,1.52,12.88,3.95l-2.42,4.02
		c-3.32-2.15-7.14-3.46-10.59-3.46c-4.23,0-6.93,2.22-6.93,5.19v0.14c0,3.39,4.43,4.71,9.21,6.16c5.54,1.66,11.5,3.81,11.5,10.25
		v0.14c0,6.79-5.6,10.73-12.74,10.73C310.2,442.55,304.52,440.54,300.5,437.29z"/>
	<path d="M338.7,406.05h5.33v7.2c2.91-4.29,7.14-7.96,13.71-7.96c8.59,0,17.11,6.79,17.11,18.56v0.14c0,11.7-8.45,18.63-17.11,18.63
		c-6.65,0-10.94-3.6-13.71-7.62v17.94h-5.33V406.05z M369.38,424.06v-0.14c0-8.45-5.82-13.85-12.6-13.85
		c-6.65,0-12.95,5.61-12.95,13.78v0.14c0,8.31,6.3,13.85,12.95,13.85C363.7,437.84,369.38,432.72,369.38,424.06z"/>
	<path d="M385.42,406.05h5.33v9.35c2.63-5.95,7.83-10.25,14.62-9.97v5.75h-0.42c-7.83,0-14.2,5.61-14.2,16.41v14.27h-5.33V406.05z"
		/>
	<path d="M410.47,424.06v-0.14c0-10.32,7.27-18.63,17.17-18.63c10.6,0,16.69,8.45,16.69,18.91c0,0.69,0,1.11-0.07,1.73h-28.39
		c0.76,7.76,6.23,12.12,12.6,12.12c4.92,0,8.38-2.01,11.29-5.06l3.32,2.98c-3.61,4.02-7.97,6.72-14.76,6.72
		C418.5,442.69,410.47,435.14,410.47,424.06z M438.93,421.98c-0.56-6.51-4.3-12.19-11.43-12.19c-6.23,0-10.95,5.19-11.64,12.19
		H438.93z"/>
	<path d="M451.43,437.29l2.7-3.81c3.87,2.91,8.17,4.57,12.39,4.57c4.29,0,7.41-2.22,7.41-5.68v-0.14c0-3.6-4.23-4.99-8.93-6.3
		c-5.61-1.59-11.84-3.53-11.84-10.11v-0.14c0-6.16,5.12-10.25,12.19-10.25c4.36,0,9.21,1.52,12.88,3.95l-2.42,4.02
		c-3.32-2.15-7.14-3.46-10.59-3.46c-4.23,0-6.93,2.22-6.93,5.19v0.14c0,3.39,4.43,4.71,9.21,6.16c5.54,1.66,11.5,3.81,11.5,10.25
		v0.14c0,6.79-5.61,10.73-12.74,10.73C461.13,442.55,455.45,440.54,451.43,437.29z"/>
	<path d="M485.97,437.29l2.7-3.81c3.87,2.91,8.17,4.57,12.39,4.57c4.29,0,7.41-2.22,7.41-5.68v-0.14c0-3.6-4.23-4.99-8.93-6.3
		c-5.61-1.59-11.84-3.53-11.84-10.11v-0.14c0-6.16,5.12-10.25,12.19-10.25c4.36,0,9.21,1.52,12.88,3.95l-2.42,4.02
		c-3.32-2.15-7.14-3.46-10.59-3.46c-4.23,0-6.93,2.22-6.93,5.19v0.14c0,3.39,4.43,4.71,9.21,6.16c5.54,1.66,11.5,3.81,11.5,10.25
		v0.14c0,6.79-5.61,10.73-12.74,10.73C495.66,442.55,489.98,440.54,485.97,437.29z"/>
	<path d="M524.3,392.34h6.1v5.89h-6.1V392.34z M524.65,406.05h5.33v35.8h-5.33V406.05z"/>
	<path d="M540.91,424.13v-0.14c0-10.11,7.89-18.7,18.7-18.7c10.73,0,18.63,8.45,18.63,18.56v0.14c0,10.11-7.97,18.7-18.77,18.7
		C548.74,442.69,540.91,434.24,540.91,424.13z M572.77,424.13v-0.14c0-7.69-5.75-13.99-13.3-13.99c-7.76,0-13.09,6.3-13.09,13.85
		v0.14c0,7.69,5.68,13.92,13.23,13.92C567.37,437.91,572.77,431.68,572.77,424.13z"/>
	<path d="M588.6,406.05h5.33v6.23c2.36-3.88,6.1-6.99,12.26-6.99c8.66,0,13.71,5.82,13.71,14.33v22.23h-5.33v-20.92
		c0-6.65-3.61-10.8-9.91-10.8c-6.16,0-10.73,4.5-10.73,11.22v20.5h-5.33V406.05z"/>
	<path d="M629.77,424.06v-0.14c0-10.32,7.27-18.63,17.17-18.63c10.6,0,16.69,8.45,16.69,18.91c0,0.69,0,1.11-0.07,1.73h-28.39
		c0.76,7.76,6.23,12.12,12.6,12.12c4.92,0,8.38-2.01,11.29-5.06l3.32,2.98c-3.61,4.02-7.97,6.72-14.76,6.72
		C637.8,442.69,629.77,435.14,629.77,424.06z M658.23,421.98c-0.56-6.51-4.3-12.19-11.43-12.19c-6.23,0-10.95,5.19-11.64,12.19
		H658.23z"/>
	<path d="M672.34,434.59h6.37v7.27h-6.37V434.59z"/>
	<path d="M690.81,392.34h6.09v5.89h-6.09V392.34z M691.16,406.05h5.33v35.8h-5.33V406.05z"/>
	<path d="M711.5,432.37v-21.61h-4.99v-4.71h4.99v-10.81h5.33v10.81h11.36v4.71h-11.36v20.92c0,4.36,2.43,5.96,6.03,5.96
		c1.8,0,3.32-0.35,5.19-1.25v4.57c-1.87,0.97-3.88,1.52-6.44,1.52C715.86,442.48,711.5,439.64,711.5,432.37z"/>
</g>
<g>
	<path d="M297.78,612.06h5.25v1.11h-4.01v1.84h3.55v1.12h-3.55v1.89h4.06v1.11h-5.3V612.06z"/>
	<path d="M303.57,618.11l0.75-0.89c0.68,0.59,1.37,0.92,2.24,0.92c0.77,0,1.25-0.36,1.25-0.89v-0.02c0-0.51-0.28-0.78-1.6-1.08
		c-1.51-0.36-2.36-0.81-2.36-2.11v-0.02c0-1.21,1.01-2.05,2.42-2.05c1.03,0,1.85,0.31,2.57,0.89l-0.67,0.94
		c-0.64-0.48-1.27-0.73-1.92-0.73c-0.73,0-1.15,0.37-1.15,0.84v0.02c0,0.55,0.32,0.79,1.69,1.11c1.5,0.36,2.27,0.9,2.27,2.07v0.02
		c0,1.32-1.04,2.11-2.53,2.11C305.44,619.24,304.42,618.87,303.57,618.11z"/>
	<path d="M310.01,612.06h2.79c1.66,0,2.69,0.94,2.69,2.37v0.02c0,1.59-1.27,2.42-2.83,2.42h-1.41v2.28h-1.24V612.06z M312.7,615.74
		c0.94,0,1.53-0.53,1.53-1.26v-0.02c0-0.83-0.6-1.26-1.53-1.26h-1.45v2.55H312.7z"/>
	<path d="M316.26,612.06h3.16c0.89,0,1.59,0.26,2.04,0.71c0.37,0.38,0.59,0.91,0.59,1.53v0.02c0,1.16-0.7,1.86-1.68,2.14l1.91,2.68
		h-1.48l-1.74-2.47h-1.56v2.47h-1.24V612.06z M319.32,615.57c0.89,0,1.46-0.46,1.46-1.18v-0.02c0-0.76-0.55-1.17-1.47-1.17h-1.81
		v2.38H319.32z"/>
	<path d="M323.06,612.06h5.25v1.11h-4.01v1.84h3.55v1.12h-3.55v1.89h4.06v1.11h-5.3V612.06z"/>
	<path d="M328.85,618.11l0.75-0.89c0.68,0.59,1.37,0.92,2.24,0.92c0.77,0,1.25-0.36,1.25-0.89v-0.02c0-0.51-0.28-0.78-1.6-1.08
		c-1.51-0.36-2.36-0.81-2.36-2.11v-0.02c0-1.21,1.01-2.05,2.42-2.05c1.03,0,1.85,0.31,2.57,0.89l-0.67,0.94
		c-0.64-0.48-1.27-0.73-1.92-0.73c-0.73,0-1.15,0.37-1.15,0.84v0.02c0,0.55,0.32,0.79,1.69,1.11c1.5,0.36,2.27,0.9,2.27,2.07v0.02
		c0,1.32-1.04,2.11-2.53,2.11C330.72,619.24,329.7,618.87,328.85,618.11z"/>
	<path d="M334.71,618.11l0.75-0.89c0.68,0.59,1.37,0.92,2.24,0.92c0.77,0,1.25-0.36,1.25-0.89v-0.02c0-0.51-0.28-0.78-1.6-1.08
		c-1.51-0.36-2.36-0.81-2.36-2.11v-0.02c0-1.21,1.01-2.05,2.42-2.05c1.03,0,1.85,0.31,2.57,0.89l-0.67,0.94
		c-0.64-0.48-1.27-0.73-1.92-0.73c-0.73,0-1.15,0.37-1.15,0.84v0.02c0,0.55,0.32,0.79,1.69,1.11c1.5,0.36,2.27,0.9,2.27,2.07v0.02
		c0,1.32-1.04,2.11-2.53,2.11C336.58,619.24,335.56,618.87,334.71,618.11z"/>
	<path d="M341.22,612.06h1.24v7.08h-1.24V612.06z"/>
	<path d="M343.54,615.62v-0.02c0-1.99,1.54-3.66,3.71-3.66c2.17,0,3.69,1.65,3.69,3.64v0.02c0,1.99-1.54,3.66-3.71,3.66
		C345.05,619.26,343.54,617.62,343.54,615.62z M349.64,615.62v-0.02c0-1.38-1-2.51-2.41-2.51c-1.41,0-2.39,1.11-2.39,2.49v0.02
		c0,1.38,1,2.51,2.41,2.51C348.65,618.11,349.64,617,349.64,615.62z"/>
	<path d="M351.94,612.06h1.15l3.79,4.9v-4.9h1.22v7.08h-1.04l-3.9-5.04v5.04h-1.22V612.06z"/>
	<path d="M359.42,612.06h5.25v1.11h-4.01v1.84h3.55v1.12h-3.55v1.89h4.06v1.11h-5.3V612.06z"/>
	<path d="M367.73,618.11l0.75-0.89c0.68,0.59,1.37,0.92,2.24,0.92c0.77,0,1.25-0.36,1.25-0.89v-0.02c0-0.51-0.28-0.78-1.6-1.08
		c-1.51-0.36-2.36-0.81-2.36-2.11v-0.02c0-1.21,1.01-2.05,2.42-2.05c1.03,0,1.85,0.31,2.57,0.89l-0.67,0.94
		c-0.64-0.48-1.27-0.73-1.92-0.73c-0.73,0-1.15,0.37-1.15,0.84v0.02c0,0.55,0.32,0.79,1.69,1.11c1.5,0.36,2.27,0.9,2.27,2.07v0.02
		c0,1.32-1.04,2.11-2.53,2.11C369.6,619.24,368.58,618.87,367.73,618.11z"/>
	<path d="M374.17,612.06h3.16c0.89,0,1.59,0.26,2.04,0.71c0.37,0.38,0.59,0.91,0.59,1.53v0.02c0,1.16-0.7,1.86-1.68,2.14l1.91,2.68
		h-1.48l-1.74-2.47h-1.56v2.47h-1.24V612.06z M377.24,615.57c0.89,0,1.46-0.46,1.46-1.18v-0.02c0-0.76-0.55-1.17-1.47-1.17h-1.81
		v2.38H377.24z"/>
	<path d="M380.97,612.06h1.24v5.95h3.72v1.13h-4.97V612.06z"/>
</g>
<g>
	<g>
		<path d="M164.33,605.92l11.95,29.75l-11.95,29.75h59.5v-59.5H164.33z M215.57,626.73h-5.56v-7.93h-19.22v13.39l24.78,12.16v13.81
			h-37.4v-5.63H184V618.8h-5.82v-5.63h37.4V626.73z"/>
		<g>
			<polygon points="242.85,619.75 234.47,615.64 234.47,611.11 240.97,611.11 240.97,613.79 242.85,613.79 242.85,609.2 
				230.2,609.2 230.2,611.11 232.17,611.11 232.17,622.52 230.2,622.52 230.2,624.42 242.85,624.42 			"/>
			<path d="M246.28,623.17c1.11,1,2.36,1.5,3.74,1.5c1.35,0,2.48-0.42,3.39-1.27c0.92-0.85,1.38-1.92,1.38-3.22
				c0-0.92-0.22-1.73-0.66-2.44c-0.44-0.71-0.96-1.21-1.57-1.51c-0.6-0.31-1.58-0.64-2.92-0.98c-1.03-0.26-1.72-0.47-2.07-0.61
				c-0.35-0.14-0.64-0.37-0.87-0.68c-0.23-0.32-0.34-0.67-0.34-1.08c0-0.53,0.22-0.99,0.67-1.37c0.44-0.39,1.08-0.58,1.92-0.58
				c1.37,0,2.45,0.59,3.23,1.76v1.06h1.86v-4.62h-1.86v1.02c-1.04-0.79-2.18-1.18-3.39-1.18c-1.28,0-2.35,0.38-3.21,1.15
				c-0.85,0.76-1.27,1.78-1.27,3.05c0,0.82,0,11.26,0,11.26h1.96V623.17z"/>
			<path d="M262.12,622.52h-1.97v-3.92h1.05c1.32,0,2.31-0.05,2.96-0.16c0.66-0.12,1.24-0.34,1.76-0.67
				c0.53-0.33,0.96-0.84,1.31-1.52c0.36-0.69,0.54-1.47,0.54-2.34c0-1.09-0.27-2.03-0.81-2.82c-0.53-0.8-1.2-1.32-1.99-1.54
				c-0.8-0.23-1.99-0.34-3.59-0.34h-5.44v1.9h1.92v11.41h-1.92v1.9h6.18V622.52z"/>
			<path d="M280.06,622.52l-2.69-5.54c2.09-0.52,3.14-1.78,3.14-3.8c0-0.96-0.25-1.77-0.74-2.41c-0.5-0.65-1.12-1.07-1.88-1.27
				c-0.76-0.2-1.78-0.31-3.08-0.31h-6.18v1.9h2.09v11.41h-2.09v1.9h4.39h1.47h0.48h0.79h2.87h3.29v-1.9H280.06z"/>
			<polygon points="242.85,638.61 234.47,634.5 234.47,629.97 240.97,629.97 240.97,632.65 242.85,632.65 242.85,628.06 
				230.2,628.06 230.2,629.97 232.17,629.97 232.17,641.38 230.2,641.38 230.2,643.28 242.85,643.28 			"/>
			<polygon points="268.85,643.28 274.45,643.28 274.45,641.38 272.8,641.38 272.8,629.97 274.45,629.97 274.45,628.06 
				268.85,628.06 268.85,629.97 270.5,641.38 268.85,641.38 			"/>
			<path d="M254.8,632.6v-4.62h-1.86V629c-1.04-0.79-2.17-1.18-3.39-1.18c-1.28,0-2.35,0.38-3.21,1.15
				c-0.85,0.76-1.27,1.78-1.27,3.05c0,0.82,0,11.26,0,11.26h1.96v-1.26c1.11,1,2.36,1.5,3.74,1.5c1.35,0,2.48-0.42,3.39-1.27
				c0.92-0.85,1.38-1.92,1.38-3.22c0-0.92-0.22-1.73-0.66-2.44c-0.44-0.71-0.96-1.21-1.56-1.51c-0.61-0.31-1.58-0.64-2.92-0.98
				c-1.03-0.26-1.72-0.47-2.07-0.61c-0.35-0.15-0.64-0.37-0.86-0.68c-0.23-0.32-0.34-0.67-0.34-1.08c0-0.53,0.22-0.99,0.67-1.37
				c0.45-0.39,1.08-0.58,1.91-0.58c1.37,0,2.45,0.59,3.23,1.76v1.06H254.8z"/>
			<path d="M267.45,639.04c0-0.92-0.22-1.73-0.66-2.44c-0.44-0.71-0.96-1.21-1.56-1.51c-0.61-0.31-1.58-0.64-2.92-0.98
				c-1.03-0.26-1.72-0.47-2.07-0.61c-0.35-0.15-0.64-0.37-0.87-0.68c-0.23-0.32-0.34-0.67-0.34-1.08c0-0.53,0.22-0.99,0.67-1.37
				c0.44-0.39,1.08-0.58,1.92-0.58c1.37,0,2.45,0.59,3.23,1.76v1.06h1.86v-4.62h-1.86V629c-1.04-0.79-2.17-1.18-3.39-1.18
				c-1.28,0-2.35,0.38-3.21,1.15c-0.85,0.76-1.27,1.78-1.27,3.05c0,0.82,0,11.26,0,11.26h1.96v-1.26c1.11,1,2.36,1.5,3.74,1.5
				c1.35,0,2.48-0.42,3.39-1.27C266.99,641.41,267.45,640.34,267.45,639.04z"/>
			<path d="M238.01,646.68c-2.32,0-4.2,0.75-5.65,2.23c-1.44,1.49-2.17,3.34-2.17,5.55c0,1.36,0.31,2.67,0.93,3.93
				c0.62,1.26,1.55,2.24,2.78,2.94c1.24,0.7,2.6,1.05,4.07,1.05c2.31,0,4.22-0.74,5.71-2.22c1.5-1.49,2.26-3.37,2.26-5.66
				c0-2.24-0.74-4.1-2.21-5.59C242.26,647.42,240.35,646.68,238.01,646.68z"/>
			<polygon points="256.11,648.91 258.27,648.91 258.27,658.84 251.59,647.01 246.39,647.01 246.39,648.91 248.57,648.91 
				248.57,660.33 246.39,660.33 246.39,662.23 252.63,662.23 257.75,662.38 260.12,662.38 260.12,648.91 262.36,648.91 
				262.36,647.01 256.11,647.01 			"/>
			<polygon points="263.02,648.91 264.99,648.91 264.99,660.33 263.02,660.33 263.02,662.23 275.67,662.23 275.67,657.56 
				267.29,653.44 267.29,648.91 273.79,648.91 273.79,651.59 275.67,651.59 275.67,647.01 263.02,647.01 			"/>
			<path d="M281.53,661.61h-0.72v-0.19c0-0.24-0.01-0.42-0.03-0.54c-0.02-0.12-0.06-0.23-0.12-0.32c-0.06-0.1-0.15-0.18-0.28-0.24
				c-0.13-0.06-0.27-0.1-0.43-0.1c-0.2,0-0.37,0.05-0.52,0.15c-0.15,0.1-0.24,0.22-0.28,0.37c-0.04,0.15-0.06,0.37-0.06,0.66v1h0.35
				v-0.35h2.09v0.35h0.35v-1.13h-0.35V661.61z M280.47,661.61h-1.04v-0.26c0-0.19,0.01-0.33,0.03-0.42
				c0.02-0.08,0.08-0.15,0.16-0.21c0.08-0.06,0.19-0.08,0.31-0.08c0.2,0,0.34,0.05,0.41,0.16c0.08,0.11,0.12,0.3,0.12,0.57V661.61z"
				/>
			<path d="M281.53,657.96l-1.02,0.49c-0.09-0.38-0.33-0.58-0.7-0.58c-0.18,0-0.32,0.05-0.44,0.14c-0.12,0.09-0.2,0.21-0.23,0.35
				c-0.04,0.14-0.06,0.33-0.06,0.56v1.13h0.35v-0.38h2.09v0.38h0.35v-1.16h-0.35v0.36h-0.96v-0.39l1.3-0.64v-0.6h-0.35V657.96z
				 M280.22,659.25h-0.79v-0.36c0-0.15,0.01-0.26,0.02-0.33c0.02-0.07,0.06-0.13,0.12-0.18c0.06-0.05,0.14-0.07,0.23-0.07
				c0.11,0,0.19,0.02,0.26,0.07c0.06,0.05,0.11,0.11,0.13,0.19c0.02,0.08,0.03,0.19,0.03,0.35V659.25z"/>
			<polygon points="281.53,656.77 279.44,656.77 279.44,656.47 279.09,656.47 279.09,657.5 279.44,657.5 279.44,657.2 281.53,657.2 
				281.53,657.5 281.88,657.5 281.88,656.47 281.53,656.47 			"/>
			<polygon points="279.44,653.39 279.09,653.39 279.09,654.54 279.44,654.54 279.44,654.14 281.26,654.14 279.09,655.37 
				279.09,656.32 279.44,656.32 279.44,655.92 281.53,655.92 281.53,656.32 281.88,656.32 281.88,655.18 281.53,655.18 
				281.53,655.58 279.52,655.58 281.91,654.24 281.91,653.8 279.44,653.8 			"/>
			<polygon points="280.15,651.42 280.15,651.07 279.09,651.07 279.09,653.34 280.15,653.34 280.15,652.99 279.44,652.99 
				279.44,652.41 281.53,652.41 281.53,652.77 281.88,652.77 281.88,651.63 281.53,651.63 281.53,651.99 279.44,651.99 
				279.44,651.42 			"/>
			<path d="M281.88,647.95v-0.64h-0.35v0.43l-0.19,0.15c-0.14-0.11-0.34-0.2-0.6-0.28v-0.3h-0.34v0.57
				c0.25,0.04,0.47,0.12,0.64,0.22l-0.77,0.57c-0.09-0.21-0.18-0.36-0.27-0.45c-0.1-0.09-0.22-0.14-0.37-0.14
				c-0.17,0-0.31,0.06-0.43,0.19c-0.11,0.13-0.17,0.29-0.17,0.48c0,0.18,0.06,0.34,0.17,0.47c0.11,0.14,0.26,0.2,0.44,0.2
				c0.16,0,0.33-0.06,0.49-0.19c0.19,0.42,0.46,0.64,0.84,0.64c0.27,0,0.49-0.09,0.67-0.28c0.18-0.19,0.27-0.43,0.27-0.72
				c0-0.25-0.1-0.5-0.29-0.74L281.88,647.95z M279.98,648.89c-0.15,0.1-0.26,0.14-0.33,0.14c-0.08,0-0.15-0.03-0.2-0.08
				c-0.05-0.06-0.08-0.13-0.08-0.21c0-0.09,0.03-0.17,0.08-0.21c0.05-0.05,0.11-0.07,0.18-0.07c0.07,0,0.14,0.03,0.19,0.09
				c0.06,0.06,0.12,0.17,0.19,0.33L279.98,648.89z M281.39,649.27c-0.12,0.12-0.27,0.18-0.43,0.18c-0.25,0-0.43-0.14-0.56-0.43
				l0.95-0.68c0.15,0.15,0.22,0.31,0.22,0.49C281.58,649.01,281.51,649.15,281.39,649.27z"/>
			<path d="M280.63,643.09c-0.03,0-0.06,0-0.1,0v1.02h0.35v-0.5c0.2,0.03,0.36,0.13,0.49,0.3c0.12,0.17,0.19,0.37,0.19,0.59
				c0,0.28-0.1,0.53-0.29,0.73c-0.2,0.2-0.46,0.3-0.79,0.3c-0.29,0-0.54-0.09-0.74-0.27c-0.21-0.18-0.31-0.42-0.31-0.72
				c0-0.22,0.06-0.41,0.18-0.59c0.12-0.17,0.26-0.29,0.41-0.36v-0.36h-0.92v0.36h0.31c-0.24,0.26-0.35,0.59-0.35,0.98
				c0,0.43,0.14,0.78,0.41,1.03c0.27,0.25,0.61,0.38,1.02,0.38c0.39,0,0.73-0.12,1.02-0.37c0.29-0.25,0.43-0.62,0.43-1.13
				c0-0.42-0.12-0.76-0.35-1.02C281.33,643.22,281.02,643.09,280.63,643.09z"/>
			<path d="M281.53,640.44v0.3l-1.02,0.49c-0.09-0.38-0.33-0.58-0.7-0.58c-0.18,0-0.32,0.05-0.44,0.14
				c-0.12,0.09-0.2,0.21-0.23,0.35c-0.04,0.14-0.06,0.33-0.06,0.56v1.13h0.35v-0.38h2.09v0.38h0.35v-1.16h-0.35v0.36h-0.96v-0.39
				l1.3-0.64v-0.56v-0.04v-1.06h-0.35v0.34l-0.63-0.21v-1.01l0.63-0.21v0.35h0.35v-1.09h-0.35v0.31l-2.13,0.78v-0.35h-0.32v1.43
				h0.32v-0.34l2.13,0.76v0.3V640.44z M280.22,642.04h-0.79v-0.36c0-0.15,0.01-0.26,0.02-0.33c0.02-0.07,0.06-0.13,0.12-0.18
				c0.06-0.05,0.14-0.07,0.23-0.07c0.11,0,0.19,0.02,0.26,0.07c0.06,0.05,0.11,0.11,0.13,0.19c0.02,0.08,0.03,0.19,0.03,0.35V642.04
				z M280.57,639.36l-1.17-0.39v-0.04l1.17-0.37V639.36z"/>
			<path d="M279.09,637.46h0.35v-0.35h2.09v0.35h0.35v-1.13h-0.35v0.36h-0.72v-0.19c0-0.24-0.01-0.42-0.03-0.54
				c-0.02-0.12-0.06-0.23-0.12-0.32c-0.06-0.1-0.15-0.18-0.28-0.24c-0.13-0.06-0.27-0.1-0.43-0.1c-0.2,0-0.37,0.05-0.52,0.15
				c-0.15,0.1-0.24,0.22-0.28,0.37c-0.04,0.15-0.06,0.37-0.06,0.66V637.46z M279.44,636.42c0-0.19,0.01-0.33,0.03-0.42
				c0.02-0.08,0.08-0.15,0.16-0.21c0.08-0.06,0.19-0.08,0.31-0.08c0.2,0,0.34,0.05,0.41,0.16c0.08,0.11,0.12,0.3,0.12,0.57v0.24
				h-1.04V636.42z"/>
			<polygon points="279.09,634 279.09,635.07 279.44,635.07 279.44,634.76 281.53,634.76 281.53,635.07 281.88,635.07 281.88,634 
				281.53,634 281.53,634.33 280.58,634.33 280.58,633.12 281.53,633.12 281.53,633.45 281.88,633.45 281.88,632.38 281.53,632.38 
				281.53,632.7 279.44,632.7 279.44,632.38 279.09,632.38 279.09,633.45 279.44,633.45 279.44,633.12 280.23,633.12 280.23,634.33 
				279.44,634.33 279.44,634 			"/>
			<polygon points="279.09,631.12 279.09,632.14 279.44,632.14 279.44,631.84 281.53,631.84 281.53,632.14 281.88,632.14 
				281.88,631.12 281.53,631.12 281.53,631.42 279.44,631.42 279.44,631.12 			"/>
			<path d="M280.95,628.06l-0.2,0.36c0.26,0.07,0.45,0.2,0.59,0.37c0.14,0.18,0.21,0.37,0.21,0.59c0,0.26-0.1,0.49-0.3,0.68
				c-0.2,0.19-0.46,0.29-0.77,0.29c-0.31,0-0.56-0.09-0.76-0.27c-0.2-0.18-0.3-0.41-0.3-0.69c0-0.18,0.05-0.36,0.15-0.53
				c0.1-0.17,0.24-0.29,0.42-0.37v-0.36h-0.9v0.36h0.26c-0.2,0.25-0.3,0.56-0.3,0.92c0,0.41,0.13,0.75,0.39,1.01
				c0.26,0.26,0.61,0.39,1.06,0.39c0.4,0,0.74-0.13,1.02-0.38c0.27-0.26,0.41-0.59,0.41-1.02c0-0.32-0.09-0.61-0.26-0.86
				C281.5,628.31,281.26,628.14,280.95,628.06z"/>
		</g>
	</g>
</g>
</svg>
