<svg xmlns="http://www.w3.org/2000/svg" xmlns:xlink="http://www.w3.org/1999/xlink" version="1.1" id="Livello_1" x="0px" y="0px" viewBox="0 0 565.7 176.7" style="enable-background:new 0 0 565.7 176.7;" xml:space="preserve"> <style type="text/css"> .st0{fill:#000000;} </style> <g> <path class="st0" d="M242.8,84.9l-35-35c-1.9-1.9-5-1.9-6.9,0l-21.4,21.4c-9.4,9.4-9.4,24.5,0,33.9l21.4,21.4c1.9,1.9,5,1.9,6.9,0 l35-35C244.6,89.9,244.6,86.8,242.8,84.9z"/> <path class="st0" d="M320.7,50.1c-1.9-1.9-5-1.9-6.9,0l-35,35c-1.9,1.9-1.9,5,0,6.9l35,35c1.9,1.9,5,1.9,6.9,0l21.4-21.4 c9.4-9.4,9.4-24.5,0-33.9L320.7,50.1z"/> <path class="st0" d="M257.4,70.3c1.9,1.9,5,1.9,6.9,0l35-35c1.9-1.9,1.9-5,0-6.9L277.8,7c-9.4-9.4-24.5-9.4-33.9,0l-21.4,21.4 c-1.9,1.9-1.9,5,0,6.9L257.4,70.3z"/> <path class="st0" d="M264.3,106.4c-1.9-1.9-5-1.9-6.9,0l-35,35c-1.9,1.9-1.9,5,0,6.9l21.4,21.4c9.4,9.4,24.5,9.4,33.9,0l21.4-21.4 c1.9-1.9,1.9-5,0-6.9L264.3,106.4z"/> <rect x="110.2" y="41.1" class="st0" width="10.3" height="94.8"/> <rect x="110.2" y="41.1" class="st0" width="10.3" height="94.8"/> <polygon class="st0" points="523,125.6 523,41.1 512.7,41.1 512.7,41.1 512.6,41.1 512.6,135.9 512.6,135.9 512.6,135.9 565.7,136 565.7,135.9 565.7,135.9 565.7,125.6 "/> <polygon class="st0" points="411.1,125.6 411.1,93.7 455.9,93.7 455.9,83.4 411.1,83.3 411.1,51.4 460.7,51.5 460.7,41.1 400.8,41.1 400.8,41.1 400.7,135.9 460.7,135.9 460.7,126.4 460.7,126.4 460.7,125.6 "/> <path class="st0" d="M55.2,54.3c-2-3.3-4.5-6-7.7-8c-3-1.9-6.3-3.3-10-4.1c-3.5-0.8-7-1.1-10.4-1.1l-17.5,0H0v94.8h10.4V93.6h18.5 c3.9,0,7.6-0.6,11-1.7c3.6-1.1,6.7-2.8,9.4-5c2.7-2.3,5-5.1,6.6-8.5c1.6-3.4,2.4-7.3,2.4-11.6C58.2,62,57.2,57.7,55.2,54.3z M46,74.4c-1.1,2.1-2.4,3.7-4.1,5c-1.7,1.3-3.7,2.3-5.9,2.9c-2.4,0.6-4.8,1-7.1,1H10.4V51.4h17.9c2.4,0,4.8,0.3,7.3,0.9 c2.3,0.6,4.4,1.4,6.2,2.7c1.7,1.1,3.1,2.6,4.2,4.6c1.1,1.9,1.6,4.3,1.6,7.3C47.6,69.9,47.1,72.4,46,74.4z"/> </g> </svg>